<svg xmlns="http://www.w3.org/2000/svg" viewBox="0 0 4549.34 2191.27"><defs><style>.cls-1{fill:#030405;}.cls-2{fill:#0a5a72;}.cls-3{fill:#c45376;}.cls-4{fill:#fefefe;}.cls-5{fill:#c8577b;}</style></defs><title>Asset 2</title><g id="Layer_2" data-name="Layer 2"><g id="Background_Layer_18_MOON_Layer_22_Layer_17_Layer_23_Layer_16_Layer_19_Layer_20_Layer_24_Layer_15_Layer_14_Layer_11_Layer_21_Layer_27_Layer_26_FALL_TRAINING_" data-name="Background + Layer 18 + MOON + Layer 22 + Layer 17 + Layer 23 + Layer 16 + Layer 19 + Layer 20 + Layer 24 + Layer 15 + Layer 14 + Layer 11 + Layer 21 + Layer 27 + Layer 26 + FALL TRAINING "><path class="cls-1" d="M630.28,1066.39c-10-2.13-16.94-1.42-25.56-9.23-9.06-8.22-12.32-20.82-11.9-34.34.3-9.46,3.94-21.43,6.52-30.84,1-3.5,3-4.76,5.81-5.91,5.65-2.34,7.3-5.09,10.64-10.38,12.58-19.92,21.61-38.31,31.92-60.56,31.64-68.29,59.65-139.65,89.1-209.59,18.46-43.81,36.09-89.18,56-132.2,4.27-9.22,7.23-17.16,13.53-24.54,13.35-15.66,20.44-10.68,26,8.4,5.16,17.72,7.14,39.87,9.15,59.17,5,48.08,9.6,102,20.8,147.37,10.59,42.88,27.3,77.79,46.11,114.17,13.87,26.83,28,47.27,42.67,72.69a153,153,0,0,1,11.38,23.26c7,19.07,5.16,40.51-7.35,55.69-8.81,10.69-17,13.28-28.93,14.3-7.26.62-12.49-1.2-19.39-.86a142.58,142.58,0,0,0,12.59,17.9c18.52,21.47,40.9,37.52,64.72,52,10.6,6.46,20.09,11.4,30.73,18.16a64.57,64.57,0,0,1,19.06,19.41,60.18,60.18,0,0,1,5.59,10.48c6.71,17.39,6.69,32.42-7.87,44.78-6,5.07-10.54,4.54-17,7a39.92,39.92,0,0,0,8.92,12.35,285,285,0,0,1,33.31,37.53,109.42,109.42,0,0,1,10.12,16.59c8.49,18.29,7.91,46.45-12.83,54.12-11.5,4.25-18.86,1.83-29.4-.18-9.22-1.76-16.59-6.09-24.46-11-9.56-5.9-19.71-9.41-28.71-16.68-2.57-2.07-3.19.76-2.93,4.12a226.39,226.39,0,0,0,2.85,24c6.93,35,18.14,69.81,38.43,98.93a114.15,114.15,0,0,0,17.77,20c7.73,7.16,14.53,12.83,21.47,20.43,2.56,2.8,5.34,5.59,7.22,9,7.08,12.86,6.91,29.19-4.72,38.54-5,4-8.8,2.2-14.18,2.51-1.39.08-2.55-1.22-3.79.18-.1,1.71,1.29,2.88,2.15,4,4.09,5.21,8.27,11.62,10.45,17.45,6.76,18.09,6.08,43.28-12.39,53-7,3.66-11.19,1.74-18,1.34a64.28,64.28,0,0,0,2.86,8.85c5.76,16.27,4.16,35.91-4.73,49.24s-20.59,19.24-33.2,22.83c-23.46,6.68-45,4.66-68.15,3.35-44.84-2.54-87.4-16.55-129.62-31.15-5.36-1.85-5.36-.87-5.21,7.57.49,26.83,1.83,57.93,1.83,85.7a183,183,0,0,1-1.12,19.58c-.86,7-4.29,14.39-10.37,14.8-19.71,1.35-35.23,2.17-55.37-1.12-11.9-2-15.14-12.4-15.48-28.08-.41-19.25-1.56-45.58-2-66.92-.34-15.5-1.18-34.24-1.23-49.13,0-5-1.11-7.25-4.64-7.52-45.36-3.51-87.54,6.56-128,26.87-10.59,5.31-20.05,11.23-34.14,9.61-18.4-2.13-23.19-25.71-21.26-43.36.71-6.52,2.56-17.79,5.09-25.65,3.77-11.69,8-25.2,12.75-36.85-5.94,1.78-12.05,4.17-18.18,5.06-9,1.3-17,1.65-26-.43a9.55,9.55,0,0,1-5.94-4.62c-4.53-7.13-9.32-16.87-13.24-24.15-5.07-9.43-3.22-19-.64-27.7,6.33-21.47,15.9-40.44,25.8-59.53,7.45-14.38,14.77-26.31,23.12-39.86,22-35.81,39.39-74.42,54-113.83,1.87-5,3.93-8.55,8.15-12.06a11.69,11.69,0,0,0,3.86-11.29c-.75-4.28-2.68-6.59-6.85-6.36a6.69,6.69,0,0,0-3.83,1.87c-5.4,4.08-9.49,7-16.72,3.79-9.45-4.22-11.59-16.52-10.43-27.21,1.24-11.43,7.4-28.7,18.58-34.14,4.2-2.05,6.07,1.94,9.88,1,1.95-.48,3.15.27,5.23-.64,3.81-1.67,4.94-5.7,4.79-9.81s-1.72-7.21-5.55-8.26c-6.09-1.67-9.89-1.67-15.18-6.11-11.41-9.56-11.62-23.58-7.73-37.74,1.79-6.49,6-14.53,9.52-19.77,11.78-17.53,27-30,44.47-40.43,10.39-6.18,18.75-11.66,28.77-17.89.26-.17.42-1,.54-1.37,1.3,1.14,2-1.11,2.48-2.05C631.79,1065.15,630.63,1064.87,630.28,1066.39ZM894,1050.91c-2.38,12.42-5.56,27.41-11.31,38.27-6.79,12.83-15.58,16.66-25.25,5.41-8-9.34-9.24-22-11.57-33.28-1-5-1.21-5.86-4.32-2.34-4.2,4.75-6.42,9.1-13.09,10.92-14.92,4.06-19.76-8.29-21.86-21.93a151.3,151.3,0,0,1-1.23-21.91c.11-4.48.39-10,5.2-11.52s6.25,4.3,6.68,8.84c.3,3.19.51,10.71.71,14.05.53,8.89,1.39,17.41,11.3,11.27,2.6-1.61,3.36-3.23,5.16-5.59,3.75-4.91,5-10.31,8.43-15.94,5-8.29,10-5.51,12.07,3.29a75.15,75.15,0,0,1,1.15,9.54c1.11,11.61,1.77,23.49,6.33,34.29,4.22,10,8,9.12,12.45-.11a58.93,58.93,0,0,0,3.3-9.12,126.16,126.16,0,0,0,4.51-28.82c.22-5.37.6-12.34,5.19-14.21s7.82-2.52,12.11-1.78c10.49,1.79,19.18,4.6,30.26,3.44,7.86-.83,14.18-4.78,19.82-11.87,4.79-6,6-15.7,3.2-23.6a120.29,120.29,0,0,0-10.69-22.64C935,953.09,928.45,942,920.66,929.45c-9.64-15.52-17.6-28.93-26.3-46-14.25-28-25.78-53-36.33-85-16-48.54-22.49-104-26.75-156.21-1.84-22.58-3.91-48.22-8.8-70.32-2.9-13.13-3.52-14.71-12-3.75a5.36,5.36,0,0,0-.6,1c-4.75,10.16-9.33,19.17-14,29.68-14.81,33.43-29,68.22-43.08,102.14-15.83,38.25-32.7,78.58-48.14,116-19.85,48.14-39.5,95.1-62.38,140.33-10,19.74-16.7,35-32.67,49.47-1.64,1.48-2.32,3.73-2.84,5.53-3,10.42-2.91,21.66,6,27.62,9.18,6.18,16.83,4.16,26.32,2.5,8-1.4,14.34-6.64,22.65-5.81,5.22.51,8.09,4.08,8.91,9.43a21.92,21.92,0,0,1-5.1,17.79c-4.28,4.86-9.63,8.71-14.54,12.33-17.6,12.94-35.92,22.23-54.66,33.78a101.3,101.3,0,0,0-26.86,23.64c-4.75,6-10.19,14.44-12.31,22.36-.89,3.3-.79,6.59,1.79,8.35,5.84,4,10.79,4.9,17.55,4.43,3.78-.26,6.26-1.5,10.52-.25,8.41,2.47,8.46,13.09,6.06,20.74a35.05,35.05,0,0,1-3.16,6.77c-7.08,11.4-15.91,18.38-26.5,26.45-5.63,4.28-10.23,8.74-13.36,15.54a15.88,15.88,0,0,0-.64,9.24c.66,2.64,2.55,2.42,4.18,2,5.72-1.46,10.35-3.06,15.92-4.6,3.58-1,6.7-3,10.06-.09s5.62,1.5,8.35-1.51c2.18-2.39,4.07-4.94,6.26-7.35,4.62-5.08,7.35-11.58,13.14-15.73,7.34-5.27,11.88-.27,14.47,7.88,1.65,5.18,3.76,14.17,5.17,19.46,3.07,11.54,6.06,17.83,16.91,10.78,7.7-5,12.08-11.47,17.83-17.57,4.2-4.45,8.13-8.76,13.18-11.44s7.89-.4,9,4.79-.34,10.51-5,13.82-8.28,7.43-12.28,11.46c-7.62,7.68-13.16,15.94-24,20.17-12.74,4.94-19-2.8-24-15-2.14-5.28-4.21-14-5.49-19.86-1-4.45-2.34-5.5-4.94-1.94-6.91,9.47-13.39,18.45-23.19,24.9-1.7,1.12-2,2.89-2.54,4.69-12.86,44.06-31.32,87.32-53.15,127.23-11.45,20.94-23.42,38.12-34.31,59-8.8,16.92-17.5,34.4-23.59,53-4.25,13-4.12,19.1,6.07,28.72a11.57,11.57,0,0,0,6.08,3,46.7,46.7,0,0,0,22.35-.42c12.4-3,23.27-6.29,33.91-14.19,3.26-2.42,6.82-1,8.18,3.35a14.07,14.07,0,0,1-1.72,12.48,73.57,73.57,0,0,0-4.92,7.63c-5.82,11.44-10.53,24-14.84,36.11a204.21,204.21,0,0,0-8.61,33.73c-1.58,10.74,2.34,23.37,12.2,22.52,12.67-1.09,22.2-6.14,32.33-11.35,25.82-13.29,52.84-20.85,81.23-24.78,16-2.22,30.59-2.12,46.41-.67,17.13,1.58,33.46,5.29,50,10.15,33.82,9.92,67,24,100.9,33.23,25.19,6.88,50,11.65,75.91,13.32,19.31,1.24,37.45,2.11,57-2,10.93-2.29,21.18-6.83,29.6-16.5,7.32-8.4,8.26-19.23,3.71-30.66a152.73,152.73,0,0,0-18-32.32c-3.44-4.73-7.19-9.11-9.47-14.68-1.62-3.92-1.68-8.57.51-12.16s4.76-3.61,7.61-1.14c2.06,1.79,3.6,5,5.22,6.92,9.91,11.59,19.47,20.73,35.88,17.4,10.86-2.2,10.3-16.68,6.5-25.58a43.74,43.74,0,0,0-6.14-9.84c-4.3-5.1-8.54-9.84-13-15.26-3.09-3.79-5.45-8.64-3.33-13.77,2.22-5.42,5-10.74,10.09-13.85a3.59,3.59,0,0,1,2.76-.17c2,.35,3.87,1.29,5.91,1.58,4.87.71,9.32,3.28,14.15.73,3.73-2,3.76-4.27,1-8.14-4.63-6.55-10.45-11.53-16.64-17.51-10.55-10.18-19.47-17.17-28.5-30.34-18.1-26.42-29.84-57.33-37.92-89.15a265.2,265.2,0,0,1-7.25-54.29c-.19-12,5.83-24.08,14.58-18.66,13,8,22.33,12.39,34,19.47,12.05,7.29,22,11.22,36.15,11.3,3.93,0,6.6.79,10.58,2.5,6.78,2.91,11.35-1.9,12.8-9,1.58-7.79.44-16.19-6.81-20.76a13.38,13.38,0,0,1-4.78-4.17c-9-13.4-18.58-25.64-30.57-36.7-10.08-9.29-17.28-20.7-23.66-32.83-2.07-3.95-2.38-9.82,0-13.17,3-4.19,5.5-7.08,10.25-7.83,6.88-1.09,12.45-1.29,18.24-6,4.68-3.77,4.8-8.52,2.54-14.23a51,51,0,0,0-18.4-23c-10.44-7.09-19.51-11.92-30-18.09-23.83-14-45.38-29.54-64.9-49.92C908.7,1074,900.52,1061,894,1050.91Zm-177.24,595c.4,16.45,2.68,33.14,7.74,48.49,2.14,6.51,4.67,12.06,8.5,16.8,4.5,5.55,7.81,4.39,11.85-.32,1.71-2,2.91-5.2,5.49-6.08,5.5-1.88,5.95-7,6.84-12.14.36-2.12.9-5.23,1.29-7.28.73-3.83,1.82-7.57,5.59-8.65,2.6-.74,2-2.86,2-5,.09-6.39-.27-14.91.37-20.76.36-3.32,0-4.89-2.1-5.58-10.51-3.48-20.21-6.54-30.59-9.69-2.59-.79-2.62,1.24-2.42,4.09.84,12,2.26,26.16,4.82,37.87.57,2.6.43,7.14,2.7,7.18,2.79.06,2.53-4.84,3-7.41,1.48-7.41,2-18.86,2.91-25.95.64-5.15,1.72-9.93,6.85-9.16,4.39.65,4.92,7.31,4.87,11.4,0,1.91-.39,5.67-.62,8.17-.91,10-2,22.55-5.37,31.54-2.54,6.75-5.17,13.15-12.32,13s-9-8.7-11.22-14.26a29.51,29.51,0,0,1-1-3.5,257.36,257.36,0,0,1-6.49-53.17c0-1.83.4-3.38-1.3-3.79s-1.54,1.85-1.52,3.37C716.8,1638.28,716.69,1642.39,716.78,1645.87ZM707,1678a8.36,8.36,0,0,0-.26,1.78c.73,19.63,1.42,43.39,2.35,61.8.84,16.45-1.24,18.78,13.76,19.11a2,2,0,0,0,.41-.09c2.13-.4,2.3-1.56,2.2-4-.2-5-.36-11.27-.24-16.46.22-8.77-1.14-15.51-5.34-23.29C713.33,1704.75,709.79,1691.5,707,1678Zm59.72,31.32c-2.05,5.07-4.08,10-9,12.91-.89.53-.68,1.72-.62,2.73.57,8.63-.18,20.44-.24,28.28-.06,6.8-.8,8,4.9,8a14.22,14.22,0,0,0,3.21-.52c1.72-.35,2.18-1.39,2.26-3.58C767.86,1741.52,767.39,1725.21,766.7,1709.34ZM744.9,1747c.08,0,.18,0,.28,0,0-1.32,0-3.88,0-5,.05-5.63.9-8.72-5.29-7.71-2.59.43-2.87,2.35-2.75,5.19.16,4.15.38,11,.24,15s.53,7,4.2,7.13c4.19.17,3.18-4,3.32-7C745,1752.37,744.86,1749.28,744.9,1747Zm288-223.87a.87.87,0,0,0,.24-.32c0-.06-.18-.38-.22-.36a1.54,1.54,0,0,0-.24.48C1032.65,1523,1032.84,1523.1,1032.88,1523.09Z"/><path class="cls-2" d="M894,1050.91c6.51,10.1,14.69,23.07,22.73,31.46,19.52,20.39,41.06,35.88,64.9,49.93,10.46,6.16,19.51,11,30,18.09a51,51,0,0,1,18.4,23c2.26,5.71,2.14,10.46-2.54,14.23-5.79,4.67-11.36,4.87-18.24,6-4.75.75-7.29,3.64-10.25,7.84-2.35,3.34-2,9.2,0,13.16,6.37,12.14,13.59,23.53,23.66,32.83,12,11.07,21.56,23.29,30.57,36.7a13.38,13.38,0,0,0,4.78,4.17c7.25,4.57,8.39,13,6.81,20.76-1.45,7.14-6,12-12.8,9-4-1.71-6.65-2.48-10.58-2.5-14.12-.08-24.09-4-36.15-11.3-11.72-7.07-21.07-11.46-34-19.48-8.76-5.41-14.78,6.72-14.59,18.67a265,265,0,0,0,7.25,54.28c8.09,31.82,19.8,62.77,37.93,89.15,9,13.14,17.91,20.2,28.48,30.35,6.21,6,12,11,16.65,17.51,2.74,3.86,2.71,6.17-1,8.15-4.82,2.54-9.28,0-14.15-.74-2-.29-3.89-1.23-5.91-1.58a3.59,3.59,0,0,0-2.76.17c-5,3.11-7.87,8.44-10.09,13.85-2.11,5.13.24,10,3.33,13.77,4.44,5.41,8.67,10.17,13,15.26a43.74,43.74,0,0,1,6.14,9.84c3.8,8.91,4.36,23.37-6.5,25.58-16.41,3.34-26-5.81-35.88-17.4-1.62-1.9-3.16-5.13-5.22-6.92-2.85-2.46-5.42-2.44-7.61,1.14s-2.13,8.24-.51,12.16c2.28,5.57,6,10,9.47,14.68a152.29,152.29,0,0,1,18,32.32c4.54,11.44,3.62,22.25-3.71,30.66-8.43,9.68-18.67,14.21-29.6,16.5-19.53,4.08-37.69,3.22-57,2-25.9-1.68-50.72-6.44-75.91-13.32-33.95-9.27-67.08-23.31-100.9-33.23-16.58-4.87-32.93-8.56-50-10.15a197,197,0,0,0-46.41.67c-28.36,3.9-55.43,11.51-81.23,24.78-10.12,5.2-19.66,10.26-32.33,11.35-9.86.85-13.78-11.78-12.2-22.52a204.21,204.21,0,0,1,8.61-33.73c4.31-12.13,9-24.67,14.84-36.11a73.57,73.57,0,0,1,4.92-7.63,14.07,14.07,0,0,0,1.72-12.48c-1.36-4.36-4.92-5.77-8.18-3.35-10.64,7.9-21.51,11.2-33.91,14.2a46.7,46.7,0,0,1-22.35.41,11.68,11.68,0,0,1-6.08-3c-10.2-9.61-10.31-15.76-6.07-28.72,6.08-18.57,14.78-36.05,23.59-53,10.89-20.92,22.84-38.09,34.3-59,21.85-39.92,40.3-83.18,53.16-127.24.53-1.8.84-3.57,2.54-4.69,9.79-6.45,16.28-15.43,23.19-24.9,2.6-3.56,4-2.51,4.94,1.94,1.28,5.85,3.35,14.58,5.49,19.86,5,12.24,11.24,20,24,15,10.89-4.22,16.43-12.49,24-20.17,4-4,7.68-8.15,12.28-11.46s6.05-8.62,5-13.82-3.94-7.48-9-4.79-9,7-13.18,11.44c-5.75,6.1-10.13,12.55-17.83,17.57-10.85,7.06-13.84.76-16.91-10.78-1.41-5.29-3.52-14.28-5.17-19.46-2.59-8.15-7.13-13.15-14.47-7.88-5.79,4.15-8.52,10.65-13.14,15.73-2.19,2.41-4.08,5-6.26,7.35-2.73,3-5,4.36-8.35,1.51s-6.48-.91-10.06.09c-5.57,1.54-10.2,3.14-15.92,4.6-1.63.41-3.52.63-4.18-2a16,16,0,0,1,.64-9.24c3.13-6.8,7.73-11.26,13.36-15.55,10.6-8.06,19.42-15,26.5-26.44a35.05,35.05,0,0,0,3.16-6.77c2.4-7.65,2.35-18.27-6.06-20.74-4.25-1.25-6.74,0-10.52.25-6.76.47-11.71-.45-17.55-4.43-2.58-1.76-2.68-5.05-1.79-8.35,2.12-7.92,7.56-16.34,12.32-22.36a101,101,0,0,1,26.85-23.64c18.76-11.56,37-20.83,54.66-33.79,4.92-3.61,10.25-7.45,14.54-12.32a21.89,21.89,0,0,0,5.1-17.79c-.83-5.35-3.68-8.92-8.91-9.44-8.32-.82-14.66,4.42-22.65,5.82-9.5,1.67-17.13,3.68-26.32-2.5-8.88-6-8.94-17.2-6-27.62.52-1.8,1.2-4,2.85-5.53,16-14.44,22.69-29.74,32.66-49.47,22.87-45.23,42.54-92.19,62.37-140.33,15.44-37.45,32.33-77.79,48.15-116,14-33.91,28.28-68.71,43.07-102.14,4.65-10.51,9.25-19.52,14-29.68a5.36,5.36,0,0,1,.6-1c8.5-11,9.1-9.38,12,3.75,4.9,22.1,6.95,47.74,8.79,70.32C835.54,694.49,842,749.93,858,798.47c10.55,31.94,22.06,56.94,36.33,85,8.7,17.09,16.64,30.51,26.29,46,7.8,12.54,14.31,23.64,21.91,36.12a120.59,120.59,0,0,1,10.69,22.64c2.77,7.9,1.58,17.59-3.2,23.6-5.64,7.09-12,11-19.82,11.87-11.08,1.16-19.77-1.65-30.26-3.44-4.29-.73-7.53-.09-12.11,1.78s-5,8.84-5.19,14.21a126.33,126.33,0,0,1-4.51,28.83,59.19,59.19,0,0,1-3.3,9.11c-4.47,9.23-8.23,10.1-12.45.11-4.56-10.8-5.22-22.68-6.33-34.29a75.15,75.15,0,0,0-1.15-9.54c-2.09-8.8-7.05-11.58-12.07-3.29-3.41,5.64-4.68,11-8.43,15.94-1.8,2.36-2.56,4-5.16,5.59-9.91,6.14-10.76-2.38-11.3-11.27-.2-3.34-.41-10.86-.71-14.05-.43-4.54-1.88-10.31-6.68-8.84s-5.08,7-5.2,11.52a151.38,151.38,0,0,0,1.23,21.91c2.09,13.65,6.94,26,21.86,21.93,6.66-1.82,8.89-6.17,13.09-10.92,3.11-3.52,3.29-2.69,4.32,2.34,2.32,11.24,3.56,23.93,11.57,33.28,9.65,11.27,18.48,7.41,25.26-5.41C888.45,1078.33,891.65,1063.32,894,1050.91Zm-89.73,266.47c-.12-8.8-.86-19.9-2.85-27.79-1.22-4.8-3.81-8.47-7.58-5.85-4.2,2.91-4.24,7.33-3.47,12.47,3.26,21.69,1,43.56-4.24,65-.8,3.24-1.85,6.63-1.93,9.72-.09,3.48.2,7,2.92,9s4.7.9,6.57-1.93a24.33,24.33,0,0,0,2.78-7A244.71,244.71,0,0,0,804.28,1317.38Zm39.17-418.69a14.61,14.61,0,0,0-2.69-9.58c-10.69-13.42-14-29.49-16.91-46.13-.93-5.2-1.66-12.69-2.54-17.28s-3.31-9-7.39-6.1-4.64,7.78-4.1,12.81c1.81,17.06,4.95,36.16,10.85,52,3.5,9.39,6.69,16.06,13.82,22.41C839.64,911.39,843.07,904.07,843.45,898.69Zm-3.8,413.57a70.58,70.58,0,0,0-1.82-18.72c-1.16-4.7-3.12-9-7.42-6.72s-4.57,7.32-3.77,12.66c1.67,11,.31,24-2.42,35-2.19,8.84-5.53,18.12-8.11,26-1.69,5.11-1.74,10.62,1.63,13.45,3.88,3.28,6.07,1.37,8-3.35A186.87,186.87,0,0,0,839.65,1312.26Zm-190.86,118c-.44-3.29-.87-7.52-4.26-8.92s-5.1.94-6.52,4.13-2.9,8.43-4.46,11.71a69.37,69.37,0,0,1-25.09,29.06c-4.87,3.23-5.94,8.14-4.81,12.9s3.84,7.76,8.64,5c17.36-10,27.67-26.14,34.71-44.92A33.22,33.22,0,0,0,648.79,1430.22Zm22.32,16c-.46-3.84-.72-8.88-5-10.26-3.76-1.22-5.46,1.88-6.25,5.5-2.09,9.64-7.32,18.46-13.45,25.78-5.14,6.14-9.85,9.59-15.91,14.1-3.89,2.9-4.67,7.68-3.64,12.06s3.49,6.79,7.8,5.49a8.77,8.77,0,0,0,3-1.58,97.56,97.56,0,0,0,27.13-30.78A55,55,0,0,0,671.11,1446.26ZM881.88,1165c-6.55.25-7.4,6.81-6.38,13.09,2.42,14.86,7.73,31.92,15.48,45,3.56,6,7.08,9.09,13,11,4.76,1.56,7.53-2.41,8.23-6.8.76-4.82-.31-9.39-5.19-11.79-4.55-2.25-7.2-5.24-9.69-10.13-4.74-9.33-8.33-22.1-10.42-31.86C886.11,1169.58,885.25,1164.84,881.88,1165ZM712,1062.88c-3.25,1.23-4.57,3.46-5.15,6.89-1.62,9.63-6.44,17.72-12.39,24.76-4.52,5.35-8.54,7.81-13.36,12.13-3.83,3.43-4.7,8.51-3.74,13.2s3.52,6.64,7.88,5.13a3.64,3.64,0,0,0,1.16-.65A93,93,0,0,0,710.51,1098a58.06,58.06,0,0,0,7.42-19.72C718.78,1072.3,718.29,1064.83,712,1062.88Zm103.13-163c.1-3-.85-7.2-3.73-9.72-4.18-3.65-5.94-9-7.33-14.51-1.84-7.22-2.8-19.27-3.19-25.56-.34-5.56-.85-12.69-6.43-10.9-5.15,1.65-5.59,8.13-5.47,14.28.24,12,2.22,28.7,6.48,40.38,2.6,7.12,4.93,12.49,11.61,15.47C812.24,911.62,815,904.71,815.16,899.89Zm101.36,246.23c-6.36,2.14-7.25,9.18-5.65,15.5,3.83,15.17,9.55,31,23.89,39,4.58,2.57,7.15-.74,8.24-5.12s.52-9.44-3.91-12.46c-10.33-7.07-14.51-18.22-17.42-30C920.82,1149.62,920,1147.19,916.52,1146.12ZM959,1484.78c4.45-.33,6.13-3.34,6.66-7.36.56-4.29-.66-8.85-4.27-10.76-11.49-6.09-16.78-15.77-21.58-27-1.7-4-3.88-7-7.88-3.75-3.53,2.83-3.45,8.57-2.18,13.11a67.88,67.88,0,0,0,7.08,16C942.71,1474.24,948.57,1481.35,959,1484.78ZM743.73,1085.39c.15-5.12.14-11.2-4.56-12.69s-6.35,3.81-6.79,7.84a24.91,24.91,0,0,1-6.82,14.56c-3.76,3.64-6.94,6.24-10.45,9.54a14.32,14.32,0,0,0-4.2,13.95c1.16,5,4.17,7.42,8.62,4.25a79,79,0,0,0,17.73-17.67C741,1100.14,743.55,1091.35,743.73,1085.39Zm166.76,359.79c-5.7,1.79-6.75,7.27-5.91,13.33,1.72,12.43,5.78,25.61,13.14,36.16,1.81,2.59,3.2,4.24,6,5,3.56,1,5.61-.89,6.62-4.65s.89-8.59-2-11.79c-7.84-8.59-10.51-19.1-12.42-30.09C915.22,1449.06,914.17,1446.87,910.49,1445.18Z"/><path class="cls-3" d="M716.78,1645.87c-.09-3.48,0-7.58,0-10.87,0-1.52-.19-3.77,1.52-3.37s1.27,2,1.3,3.79a257.44,257.44,0,0,0,6.49,53.17,31.55,31.55,0,0,0,1,3.5c2.17,5.57,4.07,14.1,11.22,14.26s9.79-6.24,12.32-13c3.38-9,4.46-21.52,5.37-31.53.23-2.51.61-6.27.62-8.18,0-4.09-.48-10.75-4.87-11.4-5.13-.77-6.21,4-6.85,9.16-.88,7.09-1.43,18.54-2.91,25.95-.51,2.57-.25,7.47-3,7.41-2.26,0-2.13-4.58-2.7-7.18-2.56-11.71-4-25.87-4.82-37.87-.2-2.85-.17-4.87,2.42-4.09,10.38,3.15,20.08,6.21,30.59,9.7,2.07.68,2.46,2.25,2.1,5.57-.64,5.85-.27,14.37-.37,20.76,0,2.17.56,4.29-2,5-3.77,1.08-4.86,4.82-5.59,8.65-.39,2-.93,5.16-1.29,7.28-.89,5.11-1.34,10.26-6.84,12.14-2.58.88-3.78,4.1-5.49,6.08-4,4.71-7.36,5.88-11.85.32-3.82-4.75-6.38-10.27-8.51-16.79C719.48,1679,717.17,1662.33,716.78,1645.87Z"/><path class="cls-3" d="M707,1678c2.81,13.48,6.35,26.73,12.88,38.83,4.2,7.78,5.56,14.52,5.34,23.29-.12,5.19,0,11.46.24,16.46.1,2.46-.07,3.62-2.2,4a2,2,0,0,1-.41.09c-15-.32-12.92-2.67-13.75-19.11-.94-18.4-1.63-42.17-2.36-61.8A8.36,8.36,0,0,1,707,1678Z"/><path class="cls-3" d="M766.7,1709.34c.69,15.87,1.16,32.18.55,47.86-.08,2.19-.54,3.23-2.26,3.58a14.22,14.22,0,0,1-3.21.52c-5.69-.07-5-1.24-4.9-8,.07-7.85.81-19.65.24-28.28-.06-1-.27-2.2.62-2.73C762.62,1719.32,764.65,1714.41,766.7,1709.34Z"/><path class="cls-3" d="M744.9,1747c0,2.32.1,5.41,0,7.59-.14,3,.87,7.15-3.32,7-3.67-.15-4.34-3.1-4.2-7.13s-.08-10.84-.24-15c-.12-2.83.16-4.75,2.75-5.18,6.19-1,5.33,2.09,5.29,7.71,0,1.11,0,3.67,0,5C745.08,1747,745,1746.91,744.9,1747Z"/><path class="cls-4" d="M630.25,1066.31c.42-1.34,1.53-1.22,2.43-2.19-.44.94-1.19,3.2-2.48,2.05A1.21,1.21,0,0,0,630.25,1066.31Z"/><path class="cls-5" d="M804.28,1317.39a245.22,245.22,0,0,1-7.8,53.57,24.45,24.45,0,0,1-2.78,7c-1.86,2.83-3.84,4-6.57,1.93s-3-5.51-2.92-9c.08-3.09,1.14-6.49,1.93-9.72,5.25-21.39,7.5-43.27,4.24-65-.77-5.14-.73-9.56,3.47-12.47,3.77-2.62,6.36,1,7.58,5.85C803.42,1297.48,804.16,1308.58,804.28,1317.39Z"/><path class="cls-5" d="M843.45,898.69c-.38,5.39-3.8,12.7-9,8.12-7.14-6.35-10.32-13-13.82-22.41-5.9-15.83-9-34.93-10.85-52-.54-5,0-10,4.1-12.81s6.52,1.52,7.39,6.1,1.62,12.08,2.54,17.28c2.94,16.64,6.22,32.71,16.91,46.13A14.61,14.61,0,0,1,843.45,898.69Z"/><path class="cls-5" d="M839.65,1312.26a186.87,186.87,0,0,1-13.89,58.31c-2,4.72-4.14,6.63-8,3.36-3.37-2.84-3.31-8.36-1.63-13.46,2.58-7.84,5.93-17.14,8.11-26,2.72-11.06,4.09-24,2.42-35-.8-5.34-.54-10.34,3.77-12.66s6.26,2,7.42,6.72A71,71,0,0,1,839.65,1312.26Z"/><path class="cls-5" d="M648.79,1430.22a33.14,33.14,0,0,1-1.79,9c-7,18.78-17.35,35-34.7,44.92-4.81,2.75-7.53-.26-8.65-5s-.06-9.67,4.81-12.9a69.36,69.36,0,0,0,25.09-29.06c1.56-3.28,3-8.52,4.46-11.71s3.13-5.53,6.52-4.13S648.35,1426.93,648.79,1430.22Z"/><path class="cls-5" d="M671.11,1446.26a55,55,0,0,1-6.27,20.31,97.56,97.56,0,0,1-27.13,30.78,8.6,8.6,0,0,1-3,1.58c-4.31,1.3-6.78-1.12-7.8-5.49s-.25-9.16,3.64-12.06c6.06-4.51,10.77-8,15.91-14.1,6.12-7.32,11.36-16.15,13.45-25.78.78-3.62,2.49-6.72,6.25-5.5C670.39,1437.38,670.65,1442.42,671.11,1446.26Z"/><path class="cls-5" d="M881.88,1165c3.37-.13,4.23,4.61,5.07,8.55,2.09,9.76,5.67,22.54,10.43,31.86,2.49,4.89,5.13,7.89,9.68,10.13,4.88,2.4,6,7,5.19,11.79-.69,4.39-3.47,8.36-8.23,6.8-5.95-1.95-9.48-5-13-11-7.74-13.09-13.05-30.15-15.47-45C874.48,1171.79,875.33,1165.22,881.88,1165Z"/><path class="cls-5" d="M712,1062.88c6.26,1.95,6.75,9.42,5.9,15.43a57.85,57.85,0,0,1-7.42,19.72,93,93,0,0,1-24.08,26.31,3.64,3.64,0,0,1-1.16.65c-4.36,1.51-6.91-.45-7.88-5.13s-.09-9.77,3.74-13.2c4.82-4.32,8.84-6.78,13.36-12.13,6-7,10.77-15.13,12.39-24.76C707.45,1066.34,708.78,1064.11,712,1062.88Z"/><path class="cls-5" d="M815.16,899.89c-.15,4.82-2.92,11.73-8.06,9.44-6.68-3-9-8.35-11.61-15.47-4.25-11.68-6.24-28.38-6.48-40.38-.12-6.15.32-12.63,5.47-14.28,5.58-1.79,6.1,5.34,6.43,10.9.39,6.29,1.36,18.34,3.19,25.56,1.39,5.47,3.15,10.86,7.33,14.51C814.31,892.69,815.26,896.86,815.16,899.89Z"/><path class="cls-5" d="M916.52,1146.12c3.43,1.07,4.3,3.5,5.15,7,2.91,11.76,7.08,22.92,17.42,30,4.43,3,5,8.09,3.91,12.47s-3.66,7.69-8.24,5.12c-14.33-8.07-20.06-23.86-23.89-39C909.28,1155.29,910.15,1148.27,916.52,1146.12Z"/><path class="cls-5" d="M959,1484.78c-10.41-3.43-16.25-10.55-22.17-19.82a67.29,67.29,0,0,1-7.08-16c-1.27-4.53-1.35-10.28,2.18-13.11,4-3.22,6.18-.24,7.88,3.75,4.79,11.24,10.09,20.93,21.58,27,3.61,1.91,4.83,6.48,4.27,10.76C965.1,1481.44,963.42,1484.45,959,1484.78Z"/><path class="cls-5" d="M743.73,1085.39c-.18,6-2.7,14.74-6.47,19.77a78.85,78.85,0,0,1-17.73,17.68c-4.45,3.16-7.46.74-8.62-4.25a14.32,14.32,0,0,1,4.2-13.95c3.51-3.3,6.69-5.9,10.45-9.54a24.91,24.91,0,0,0,6.82-14.56c.44-4,2.08-9.33,6.79-7.84S743.88,1080.27,743.73,1085.39Z"/><path class="cls-5" d="M910.49,1445.18c3.68,1.69,4.73,3.88,5.45,8,1.91,11,4.58,21.5,12.42,30.09,2.92,3.2,3,8,2,11.79s-3.06,5.66-6.62,4.65c-2.85-.81-4.24-2.46-6-5-7.37-10.54-11.41-23.73-13.14-36.16C903.74,1452.45,904.79,1447,910.49,1445.18Z"/><path class="cls-1" d="M3640.07,526.89c-10-2.12-16.94-1.42-25.55-9.23-9.07-8.22-12.33-20.82-11.9-34.34.29-9.45,3.93-21.42,6.52-30.84,1-3.5,3-4.76,5.8-5.9,5.65-2.34,7.3-5.1,10.64-10.38,12.58-19.93,21.61-38.32,31.93-60.57,31.64-68.29,59.64-139.65,89.09-209.58,18.46-43.82,36.09-89.19,56-132.21,4.27-9.22,7.23-17.15,13.53-24.54,13.35-15.65,20.44-10.67,26,8.41,5.16,17.71,7.14,39.86,9.15,59.16,5,48.08,9.6,102,20.8,147.37,10.59,42.88,27.3,77.79,46.11,114.17,13.87,26.83,28,47.27,42.67,72.69a152.06,152.06,0,0,1,11.38,23.26c7,19.07,5.16,40.51-7.35,55.69-8.81,10.69-17,13.29-28.93,14.3-7.26.62-12.49-1.2-19.39-.85a143.2,143.2,0,0,0,12.59,17.89c18.52,21.47,40.9,37.53,64.72,52.05,10.6,6.46,20.09,11.41,30.73,18.16A64.57,64.57,0,0,1,4043.65,611a60.18,60.18,0,0,1,5.59,10.48c6.72,17.4,6.69,32.42-7.86,44.78-6,5.07-10.55,4.54-17,7a39.8,39.8,0,0,0,8.92,12.35,285.73,285.73,0,0,1,33.31,37.54,108.44,108.44,0,0,1,10.12,16.59c8.49,18.29,7.91,46.44-12.83,54.11-11.5,4.25-18.86,1.83-29.4-.18-9.22-1.75-16.59-6.09-24.46-10.94-9.56-5.91-19.71-9.42-28.71-16.68-2.57-2.08-3.19.75-2.93,4.11a223.55,223.55,0,0,0,2.86,24c6.92,35,18.13,69.81,38.42,98.93a114.15,114.15,0,0,0,17.77,20c7.73,7.16,14.53,12.83,21.47,20.43,2.56,2.81,5.35,5.59,7.23,9,7.07,12.86,6.9,29.18-4.73,38.53-5,4-8.8,2.2-14.18,2.51-1.39.08-2.55-1.22-3.79.19-.1,1.7,1.29,2.87,2.15,4,4.09,5.21,8.27,11.62,10.45,17.46,6.76,18.08,6.08,43.28-12.39,53-7,3.66-11.19,1.75-18,1.34.46,2.65,2,6.33,2.86,8.85,5.76,16.28,4.16,35.91-4.73,49.24s-20.59,19.24-33.2,22.83c-23.45,6.68-44.94,4.67-68.15,3.35-44.84-2.54-87.4-16.55-129.62-31.15-5.36-1.85-5.36-.87-5.21,7.57.49,26.83,1.83,57.93,1.83,85.7a183.15,183.15,0,0,1-1.12,19.59c-.85,7-4.29,14.38-10.37,14.8-19.71,1.35-35.23,2.16-55.36-1.13-11.91-1.94-15.15-12.4-15.49-28.08-.41-19.25-1.56-45.58-2-66.92-.35-15.49-1.19-34.24-1.24-49.13,0-5-1.11-7.25-4.64-7.52-45.36-3.51-87.54,6.56-128,26.87-10.59,5.32-20,11.24-34.14,9.61-18.4-2.13-23.19-25.71-21.26-43.36.71-6.52,2.56-17.79,5.09-25.65,3.77-11.69,8-25.2,12.75-36.85-5.94,1.79-12.05,4.17-18.18,5.06-9,1.3-17,1.65-26-.43a9.59,9.59,0,0,1-5.94-4.61c-4.53-7.13-9.32-16.87-13.24-24.16-5.07-9.43-3.21-19-.64-27.7,6.33-21.47,15.9-40.43,25.8-59.53,7.45-14.38,14.78-26.3,23.12-39.86,22-35.81,39.39-74.41,54-113.83,1.87-5,3.93-8.55,8.15-12.05a11.72,11.72,0,0,0,3.86-11.3c-.75-4.28-2.68-6.58-6.85-6.36-1.7.09-2.75,1.06-3.83,1.88-5.4,4.08-9.49,7-16.72,3.78-9.45-4.22-11.59-16.52-10.43-27.2,1.24-11.44,7.4-28.71,18.58-34.15,4.2-2,6.07,2,9.88,1,2-.48,3.16.27,5.23-.64,3.81-1.66,4.94-5.7,4.79-9.81s-1.72-7.2-5.55-8.26c-6.09-1.67-9.89-1.67-15.17-6.1-11.42-9.56-11.63-23.59-7.74-37.75,1.79-6.49,6-14.52,9.52-19.77,11.79-17.53,27-30,44.47-40.43,10.39-6.17,18.75-11.66,28.77-17.89.26-.16.42-1,.54-1.36,1.3,1.13,2.05-1.11,2.49-2.06C3641.58,525.65,3640.42,525.37,3640.07,526.89Zm263.74-15.48c-2.38,12.42-5.56,27.41-11.31,38.27-6.79,12.83-15.58,16.67-25.25,5.41-8-9.34-9.24-22.05-11.57-33.28-1-5-1.21-5.86-4.32-2.34-4.2,4.76-6.42,9.11-13.09,10.92-14.92,4.06-19.76-8.28-21.86-21.92a153,153,0,0,1-1.23-21.92c.12-4.48.39-10.05,5.2-11.52s6.25,4.3,6.68,8.84c.3,3.19.51,10.71.71,14.05.54,8.89,1.39,17.42,11.3,11.27,2.6-1.61,3.36-3.23,5.16-5.59,3.75-4.91,5-10.3,8.44-15.94,5-8.29,10-5.51,12.06,3.29a75.31,75.31,0,0,1,1.15,9.55c1.11,11.6,1.77,23.49,6.33,34.28,4.22,10,8,9.12,12.45-.1a59.7,59.7,0,0,0,3.3-9.12,126.9,126.9,0,0,0,4.52-28.82c.21-5.38.59-12.35,5.18-14.21s7.82-2.52,12.11-1.79c10.49,1.79,19.18,4.61,30.26,3.44,7.86-.82,14.18-4.78,19.82-11.87,4.79-6,6-15.69,3.21-23.6a120.63,120.63,0,0,0-10.7-22.64c-7.59-12.48-14.12-23.58-21.91-36.12-9.64-15.51-17.6-28.92-26.3-46-14.25-28-25.78-53-36.32-85-16-48.53-22.5-104-26.76-156.21-1.84-22.58-3.91-48.22-8.8-70.32-2.9-13.13-3.52-14.71-12-3.75a5.36,5.36,0,0,0-.6,1c-4.75,10.16-9.33,19.17-14,29.68-14.81,33.43-29,68.23-43.08,102.15-15.83,38.24-32.7,78.58-48.14,116-19.85,48.14-39.5,95.09-62.38,140.32-10,19.74-16.7,35-32.66,49.47-1.65,1.49-2.33,3.73-2.85,5.54-3,10.41-2.91,21.65,6,27.62,9.19,6.18,16.83,4.16,26.32,2.49,8-1.39,14.34-6.64,22.65-5.81,5.23.52,8.09,4.08,8.91,9.43a22,22,0,0,1-5.1,17.8c-4.28,4.86-9.63,8.7-14.54,12.32-17.6,13-35.92,22.24-54.66,33.78a101.3,101.3,0,0,0-26.86,23.64c-4.75,6-10.19,14.44-12.31,22.37-.89,3.3-.79,6.58,1.79,8.34,5.85,4,10.79,4.9,17.55,4.43,3.78-.26,6.26-1.5,10.52-.25,8.41,2.47,8.46,13.09,6.06,20.74a35.05,35.05,0,0,1-3.16,6.77c-7.08,11.4-15.9,18.38-26.5,26.45-5.62,4.29-10.23,8.75-13.36,15.54a16,16,0,0,0-.64,9.25c.66,2.63,2.55,2.41,4.18,2,5.72-1.46,10.35-3.05,15.92-4.6,3.58-1,6.7-3,10.06-.09s5.62,1.5,8.35-1.51c2.18-2.39,4.07-4.94,6.27-7.35,4.61-5.07,7.34-11.58,13.13-15.72,7.34-5.27,11.88-.28,14.47,7.88,1.65,5.18,3.76,14.16,5.17,19.45,3.07,11.55,6.06,17.84,16.91,10.78,7.7-5,12.08-11.47,17.83-17.56,4.2-4.46,8.13-8.76,13.18-11.45s7.9-.4,9,4.8-.34,10.5-4.95,13.81-8.28,7.43-12.28,11.47c-7.62,7.67-13.16,15.94-24,20.16-12.75,5-19-2.79-24-15-2.14-5.28-4.21-14-5.49-19.86-1-4.45-2.34-5.5-4.94-1.93-6.91,9.47-13.39,18.44-23.18,24.89-1.71,1.12-2,2.89-2.55,4.7-12.86,44.05-31.32,87.32-53.15,127.23-11.45,20.93-23.42,38.11-34.31,59-8.8,16.92-17.5,34.4-23.59,53-4.25,13-4.12,19.1,6.07,28.72a11.61,11.61,0,0,0,6.08,3,46.58,46.58,0,0,0,22.35-.41c12.4-3,23.27-6.29,33.91-14.2,3.26-2.42,6.82-1,8.18,3.35a14.1,14.1,0,0,1-1.72,12.49,72.38,72.38,0,0,0-4.92,7.62c-5.82,11.45-10.53,24-14.83,36.11a202.34,202.34,0,0,0-8.61,33.74c-1.59,10.73,2.33,23.36,12.19,22.51,12.67-1.09,22.2-6.13,32.33-11.35,25.82-13.29,52.84-20.85,81.24-24.78a196.4,196.4,0,0,1,46.4-.66c17.13,1.57,33.46,5.28,50,10.15,33.82,9.91,67,24,100.9,33.22,25.19,6.88,50,11.65,75.91,13.32,19.31,1.24,37.45,2.12,57-2,10.93-2.29,21.18-6.82,29.6-16.5,7.32-8.4,8.26-19.23,3.71-30.66a153,153,0,0,0-18-32.32c-3.43-4.72-7.18-9.11-9.47-14.67-1.61-3.93-1.67-8.57.51-12.16s4.76-3.61,7.61-1.15c2.06,1.79,3.6,5,5.22,6.92,9.91,11.6,19.47,20.74,35.88,17.41,10.86-2.21,10.3-16.68,6.51-25.59a44.16,44.16,0,0,0-6.15-9.84c-4.3-5.09-8.54-9.84-13-15.26-3.09-3.78-5.45-8.64-3.33-13.77,2.22-5.41,5-10.74,10.09-13.85a3.63,3.63,0,0,1,2.76-.17c2,.35,3.87,1.29,5.91,1.59,4.87.7,9.33,3.28,14.15.73,3.73-2,3.76-4.28,1-8.15-4.63-6.55-10.45-11.53-16.64-17.51-10.55-10.18-19.47-17.17-28.5-30.34-18.1-26.41-29.84-57.33-37.92-89.15a265.11,265.11,0,0,1-7.25-54.29c-.19-12,5.83-24.07,14.58-18.66,13,8,22.34,12.4,34,19.48,12.05,7.28,22,11.21,36.16,11.29,3.92,0,6.59.79,10.57,2.5,6.78,2.91,11.35-1.9,12.8-9,1.58-7.79.44-16.19-6.81-20.75a13.5,13.5,0,0,1-4.78-4.18c-9-13.4-18.58-25.64-30.57-36.69-10.08-9.29-17.28-20.7-23.66-32.84-2.07-4-2.38-9.82,0-13.16,3-4.2,5.5-7.08,10.25-7.83,6.88-1.09,12.45-1.3,18.24-6,4.68-3.78,4.8-8.52,2.55-14.23a51.08,51.08,0,0,0-18.41-23c-10.44-7.08-19.5-11.92-30-18.08-23.83-14.06-45.37-29.55-64.9-49.93C3918.49,534.49,3910.31,521.51,3903.81,511.41Zm-177.24,595c.4,16.45,2.69,33.14,7.74,48.49,2.14,6.51,4.67,12.07,8.5,16.8,4.5,5.55,7.81,4.4,11.86-.31,1.7-2,2.9-5.21,5.48-6.09,5.5-1.88,5.95-7,6.84-12.14.37-2.12.9-5.23,1.29-7.28.73-3.83,1.82-7.57,5.6-8.65,2.59-.74,2-2.86,2-5,.09-6.39-.27-14.91.37-20.75.36-3.33,0-4.9-2.1-5.59-10.51-3.48-20.21-6.54-30.59-9.69-2.59-.78-2.62,1.24-2.42,4.09.85,12,2.26,26.16,4.82,37.87.57,2.6.44,7.14,2.7,7.18,2.79.06,2.53-4.84,3-7.4,1.47-7.42,2-18.87,2.9-25.95.64-5.16,1.72-9.94,6.85-9.17,4.4.66,4.92,7.31,4.87,11.4,0,1.91-.39,5.67-.62,8.18-.91,10-2,22.54-5.37,31.53-2.53,6.75-5.17,13.16-12.32,13s-9.05-8.7-11.22-14.26a32.42,32.42,0,0,1-1-3.51,257.28,257.28,0,0,1-6.49-53.17c0-1.83.4-3.38-1.3-3.78s-1.54,1.84-1.51,3.36C3726.59,1098.79,3726.48,1102.89,3726.57,1106.37Zm-9.79,32.15a7.83,7.83,0,0,0-.27,1.78c.73,19.63,1.42,43.4,2.35,61.8.84,16.45-1.24,18.79,13.76,19.11a2,2,0,0,0,.41-.09c2.13-.39,2.3-1.56,2.2-4-.2-5-.36-11.26-.24-16.46.22-8.77-1.14-15.51-5.33-23.28C3723.12,1165.25,3719.58,1152,3716.78,1138.52Zm59.71,31.32c-2,5.07-4.08,10-9,12.91-.89.54-.68,1.72-.62,2.73.58,8.63-.18,20.44-.24,28.28-.05,6.8-.8,8,4.9,8a13.18,13.18,0,0,0,3.21-.52c1.72-.35,2.18-1.38,2.26-3.58C3777.65,1202,3777.18,1185.71,3776.49,1169.84Zm-21.8,37.63c.08-.06.18,0,.28,0,0-1.31,0-3.88,0-5,.05-5.63.9-8.72-5.29-7.71-2.59.42-2.87,2.34-2.75,5.18.16,4.15.38,11,.24,15s.53,7,4.2,7.12c4.19.17,3.18-4,3.32-7C3754.79,1212.87,3754.65,1209.78,3754.69,1207.47Zm288-223.88a.77.77,0,0,0,.24-.32c0-.06-.18-.38-.22-.36a1.49,1.49,0,0,0-.24.49C4042.44,983.46,4042.63,983.6,4042.67,983.59Z"/><path class="cls-2" d="M3903.81,511.41c6.5,10.1,14.68,23.08,22.72,31.47,19.53,20.38,41.06,35.88,64.9,49.92,10.46,6.16,19.51,11,30,18.09a50.93,50.93,0,0,1,18.4,23c2.26,5.7,2.14,10.45-2.54,14.23-5.79,4.66-11.36,4.87-18.23,6-4.76.75-7.3,3.63-10.26,7.83-2.35,3.34-2,9.21,0,13.16,6.37,12.14,13.59,23.53,23.66,32.84,12,11.06,21.56,23.28,30.57,36.69a13.5,13.5,0,0,0,4.78,4.18c7.25,4.56,8.39,13,6.81,20.75-1.45,7.14-6,12-12.8,9-4-1.71-6.65-2.48-10.58-2.5-14.12-.07-24.09-4-36.15-11.29-11.71-7.07-21.07-11.47-34-19.48-8.76-5.41-14.78,6.72-14.59,18.66a264.45,264.45,0,0,0,7.26,54.29c8.08,31.81,19.79,62.77,37.92,89.14,9.05,13.15,17.91,20.2,28.49,30.35,6.2,6,12,11,16.64,17.51,2.75,3.86,2.71,6.18-1,8.15-4.82,2.54-9.28,0-14.15-.73-2-.3-3.89-1.24-5.91-1.59a3.63,3.63,0,0,0-2.76.17c-5,3.11-7.87,8.44-10.09,13.85-2.11,5.13.24,10,3.33,13.77,4.44,5.42,8.67,10.17,13,15.26a43.79,43.79,0,0,1,6.14,9.85c3.8,8.9,4.36,23.37-6.5,25.57-16.41,3.34-26-5.81-35.88-17.4-1.62-1.9-3.16-5.13-5.22-6.92-2.85-2.46-5.42-2.44-7.61,1.15s-2.12,8.23-.51,12.16c2.28,5.56,6,9.94,9.47,14.67a152.53,152.53,0,0,1,18,32.32c4.54,11.44,3.62,22.25-3.7,30.66-8.44,9.68-18.68,14.22-29.61,16.5-19.53,4.08-37.69,3.22-57,2-25.9-1.68-50.72-6.44-75.91-13.31-33.95-9.27-67.08-23.32-100.9-33.24-16.58-4.87-32.93-8.56-50-10.15a197.56,197.56,0,0,0-46.41.67c-28.36,3.91-55.43,11.51-81.23,24.78-10.12,5.21-19.66,10.26-32.33,11.35-9.86.85-13.78-11.78-12.19-22.51a203,203,0,0,1,8.6-33.74c4.31-12.13,9-24.67,14.84-36.11a72.38,72.38,0,0,1,4.92-7.62,14.1,14.1,0,0,0,1.72-12.49c-1.36-4.35-4.92-5.77-8.18-3.34-10.64,7.89-21.51,11.2-33.91,14.19a46.7,46.7,0,0,1-22.35.41,11.61,11.61,0,0,1-6.08-3c-10.2-9.61-10.31-15.76-6.07-28.72,6.08-18.57,14.78-36,23.59-53,10.9-20.93,22.85-38.09,34.3-59,21.85-39.92,40.3-83.17,53.16-127.23.53-1.81.84-3.57,2.55-4.7,9.78-6.45,16.27-15.42,23.18-24.89,2.6-3.57,4-2.52,5,1.93,1.27,5.85,3.34,14.58,5.48,19.86,5,12.25,11.24,20,24,15,10.89-4.22,16.43-12.49,24-20.16,4-4,7.68-8.16,12.28-11.47s6.05-8.62,4.95-13.81-3.94-7.49-9-4.8-9,7-13.18,11.45c-5.75,6.09-10.13,12.55-17.83,17.56-10.85,7.06-13.84.76-16.91-10.78-1.41-5.29-3.52-14.27-5.17-19.45-2.59-8.16-7.13-13.15-14.47-7.88-5.79,4.14-8.52,10.65-13.13,15.72-2.2,2.41-4.09,5-6.27,7.35-2.73,3-5,4.37-8.35,1.51s-6.48-.9-10.06.09c-5.57,1.55-10.2,3.15-15.92,4.6-1.63.41-3.52.63-4.18-2a16,16,0,0,1,.64-9.25c3.13-6.8,7.73-11.25,13.36-15.54,10.6-8.07,19.42-15,26.5-26.45a35.05,35.05,0,0,0,3.16-6.77c2.4-7.65,2.35-18.27-6.06-20.74-4.25-1.25-6.74,0-10.52.25-6.76.47-11.71-.44-17.55-4.43-2.58-1.76-2.68-5-1.79-8.34,2.12-7.93,7.56-16.35,12.32-22.37a101.13,101.13,0,0,1,26.85-23.64c18.76-11.56,37-20.82,54.66-33.78,4.92-3.62,10.25-7.46,14.54-12.32a21.91,21.91,0,0,0,5.1-17.8c-.83-5.35-3.68-8.92-8.91-9.43-8.32-.82-14.66,4.41-22.65,5.81-9.5,1.67-17.13,3.68-26.32-2.49-8.88-6-8.94-17.21-6-27.62.52-1.81,1.2-4.06,2.85-5.54,15.95-14.43,22.69-29.73,32.67-49.47,22.86-45.22,42.53-92.19,62.37-140.32,15.43-37.46,32.32-77.8,48.14-116,14-33.92,28.28-68.72,43.07-102.15,4.65-10.5,9.25-19.52,14-29.68a5.36,5.36,0,0,1,.6-1c8.5-11,9.1-9.38,12,3.76,4.9,22.09,6.95,47.73,8.79,70.31,4.27,52.23,10.74,107.68,26.77,156.21,10.55,31.94,22.06,56.94,36.33,85,8.7,17.09,16.64,30.51,26.29,46,7.8,12.54,14.31,23.64,21.91,36.13a120.24,120.24,0,0,1,10.7,22.63c2.76,7.91,1.57,17.59-3.21,23.6-5.64,7.09-11.95,11.05-19.82,11.87-11.08,1.17-19.77-1.65-30.26-3.44-4.29-.73-7.52-.08-12.11,1.78s-5,8.85-5.19,14.22a126.33,126.33,0,0,1-4.51,28.82,59.7,59.7,0,0,1-3.3,9.12c-4.47,9.22-8.23,10.09-12.45.1-4.56-10.8-5.22-22.68-6.33-34.28a75.09,75.09,0,0,0-1.15-9.55c-2.09-8.8-7.05-11.58-12.07-3.29-3.41,5.64-4.68,11-8.43,15.94-1.8,2.36-2.56,4-5.16,5.59-9.91,6.15-10.76-2.38-11.3-11.27-.2-3.34-.41-10.86-.71-14.05-.43-4.54-1.88-10.31-6.68-8.84s-5.08,7-5.2,11.52a153,153,0,0,0,1.23,21.92c2.09,13.64,6.94,26,21.86,21.92,6.66-1.81,8.89-6.17,13.09-10.92,3.11-3.52,3.29-2.68,4.32,2.34,2.32,11.24,3.56,23.93,11.57,33.28,9.65,11.27,18.48,7.41,25.26-5.41C3898.24,538.83,3901.44,523.83,3903.81,511.41Zm-89.74,266.48c-.12-8.81-.85-19.91-2.85-27.8-1.22-4.79-3.81-8.47-7.58-5.85-4.2,2.92-4.24,7.33-3.47,12.47,3.26,21.69,1,43.57-4.24,65-.8,3.24-1.85,6.63-1.93,9.72-.09,3.48.2,7,2.92,9s4.71.9,6.57-1.93a24.38,24.38,0,0,0,2.78-7A244.71,244.71,0,0,0,3814.07,777.89Zm39.17-418.7a14.57,14.57,0,0,0-2.69-9.57c-10.69-13.43-14-29.5-16.91-46.13-.92-5.21-1.66-12.7-2.54-17.29s-3.31-8.95-7.39-6.1-4.64,7.79-4.1,12.81c1.81,17.07,4.95,36.16,10.85,52,3.5,9.38,6.69,16,13.82,22.4C3849.43,371.89,3852.86,364.58,3853.24,359.19Zm-3.8,413.57a70.46,70.46,0,0,0-1.82-18.71c-1.16-4.71-3.12-9-7.42-6.73s-4.57,7.32-3.77,12.66c1.67,11.06.31,24-2.42,35-2.19,8.83-5.53,18.12-8.11,26-1.69,5.11-1.73,10.62,1.63,13.46,3.88,3.27,6.07,1.36,8-3.36A186.74,186.74,0,0,0,3849.44,772.76Zm-190.86,118c-.44-3.28-.87-7.52-4.26-8.92s-5.1.94-6.52,4.14-2.9,8.42-4.46,11.7a69.37,69.37,0,0,1-25.09,29.06c-4.87,3.24-5.93,8.15-4.81,12.9s3.84,7.77,8.65,5c17.35-10,27.66-26.14,34.7-44.92A33.22,33.22,0,0,0,3658.58,890.72Zm22.32,16c-.46-3.84-.72-8.88-5-10.25-3.76-1.22-5.46,1.87-6.25,5.49-2.09,9.64-7.32,18.46-13.45,25.78-5.14,6.14-9.85,9.59-15.91,14.1-3.89,2.9-4.67,7.68-3.64,12.06s3.49,6.79,7.8,5.5a8.68,8.68,0,0,0,3-1.58,97.78,97.78,0,0,0,27.13-30.78A55,55,0,0,0,3680.9,906.76Zm210.77-281.29c-6.55.25-7.39,6.82-6.38,13.09,2.42,14.86,7.73,31.93,15.48,45,3.56,6,7.08,9.08,13,11,4.76,1.56,7.53-2.41,8.23-6.8.76-4.82-.31-9.39-5.19-11.79-4.55-2.24-7.2-5.24-9.68-10.13-4.75-9.32-8.34-22.1-10.43-31.86C3895.9,630.08,3895,625.34,3891.67,625.47ZM3721.82,523.38c-3.25,1.23-4.57,3.46-5.15,6.89-1.62,9.63-6.44,17.73-12.39,24.76-4.52,5.36-8.54,7.81-13.36,12.13-3.83,3.43-4.7,8.51-3.74,13.2s3.53,6.64,7.88,5.14a4.07,4.07,0,0,0,1.16-.65,93.12,93.12,0,0,0,24.09-26.32,58,58,0,0,0,7.41-19.72C3728.57,532.8,3728.08,525.33,3721.82,523.38Zm103.14-163c.1-3-.85-7.2-3.74-9.71-4.18-3.66-5.94-9-7.33-14.52-1.84-7.22-2.8-19.27-3.18-25.55-.35-5.57-.86-12.7-6.44-10.91-5.14,1.65-5.59,8.13-5.47,14.28.24,12,2.22,28.71,6.48,40.38,2.6,7.12,4.93,12.5,11.61,15.47C3822,372.12,3824.8,365.22,3825,360.39Zm101.35,246.23c-6.36,2.15-7.24,9.18-5.65,15.5,3.83,15.17,9.55,31,23.9,39,4.57,2.57,7.14-.73,8.23-5.12s.52-9.43-3.91-12.46c-10.33-7.07-14.51-18.22-17.42-30C3930.61,610.12,3929.74,607.69,3926.31,606.62Zm42.45,338.67c4.45-.34,6.13-3.34,6.66-7.37.56-4.28-.66-8.84-4.27-10.76-11.49-6.08-16.78-15.76-21.58-27-1.7-4-3.88-7-7.88-3.76-3.53,2.83-3.45,8.58-2.18,13.11a67.88,67.88,0,0,0,7.08,16C3952.51,934.74,3958.36,941.85,3968.76,945.29Zm-215.24-399.4c.16-5.11.14-11.2-4.56-12.69s-6.35,3.82-6.79,7.84a24.85,24.85,0,0,1-6.82,14.56c-3.76,3.64-6.94,6.25-10.44,9.54a14.31,14.31,0,0,0-4.21,14c1.16,5,4.17,7.42,8.62,4.26a79.06,79.06,0,0,0,17.73-17.68C3750.82,560.64,3753.34,551.85,3753.52,545.89Zm166.76,359.79c-5.7,1.79-6.75,7.27-5.91,13.33,1.72,12.43,5.78,25.62,13.14,36.16,1.81,2.59,3.2,4.25,6,5.06,3.56,1,5.61-.9,6.62-4.66s.89-8.58-2-11.78c-7.84-8.6-10.51-19.11-12.42-30.1C3925,909.57,3924,907.37,3920.28,905.68Z"/><path class="cls-3" d="M3726.57,1106.37c-.09-3.48,0-7.58,0-10.87,0-1.52-.2-3.77,1.51-3.36s1.27,1.95,1.3,3.78a257.28,257.28,0,0,0,6.49,53.17,32.42,32.42,0,0,0,1,3.51c2.17,5.56,4.07,14.1,11.22,14.26s9.79-6.25,12.32-13c3.38-9,4.47-21.52,5.37-31.53.23-2.5.61-6.27.62-8.18,0-4.09-.47-10.74-4.87-11.4-5.13-.77-6.21,4-6.85,9.17-.88,7.08-1.43,18.53-2.9,25.94-.51,2.57-.26,7.47-3,7.41-2.26,0-2.13-4.58-2.7-7.18-2.56-11.71-4-25.87-4.82-37.87-.2-2.85-.17-4.87,2.42-4.08,10.38,3.14,20.08,6.2,30.59,9.69,2.07.69,2.46,2.25,2.1,5.58-.64,5.84-.27,14.36-.37,20.75,0,2.17.56,4.29-2,5-3.78,1.08-4.87,4.82-5.6,8.65-.39,2.05-.93,5.16-1.29,7.28-.89,5.11-1.34,10.27-6.84,12.14-2.57.88-3.78,4.1-5.48,6.09-4.05,4.7-7.37,5.87-11.86.31-3.82-4.74-6.38-10.27-8.51-16.79C3729.27,1139.49,3727,1122.83,3726.57,1106.37Z"/><path class="cls-3" d="M3716.78,1138.52c2.81,13.48,6.34,26.74,12.87,38.84,4.2,7.77,5.56,14.51,5.34,23.28-.12,5.2,0,11.46.24,16.46.1,2.46-.07,3.63-2.2,4a2,2,0,0,1-.41.09c-15-.32-12.92-2.66-13.75-19.11-.94-18.4-1.63-42.17-2.36-61.8A7.74,7.74,0,0,1,3716.78,1138.52Z"/><path class="cls-3" d="M3776.49,1169.84c.69,15.87,1.17,32.18.55,47.86-.08,2.2-.54,3.23-2.26,3.58a13.18,13.18,0,0,1-3.21.52c-5.69-.06-5-1.24-4.9-8,.07-7.84.81-19.64.24-28.28-.06-1-.27-2.19.62-2.73C3772.41,1179.83,3774.44,1174.91,3776.49,1169.84Z"/><path class="cls-3" d="M3754.69,1207.47c0,2.31.1,5.4,0,7.58-.14,3,.87,7.15-3.32,7-3.67-.14-4.34-3.1-4.2-7.12s-.08-10.85-.24-15c-.12-2.84.16-4.76,2.75-5.18,6.19-1,5.34,2.08,5.29,7.71,0,1.1,0,3.67,0,5C3754.87,1207.49,3754.77,1207.41,3754.69,1207.47Z"/><path class="cls-4" d="M3640,526.81c.42-1.34,1.53-1.21,2.43-2.19-.44.94-1.19,3.2-2.48,2A1.21,1.21,0,0,0,3640,526.81Z"/><path class="cls-5" d="M3814.07,777.89a245.13,245.13,0,0,1-7.8,53.57,24.23,24.23,0,0,1-2.78,7c-1.86,2.82-3.84,3.95-6.57,1.92s-3-5.51-2.92-9c.08-3.08,1.14-6.49,1.93-9.72,5.25-21.39,7.5-43.27,4.25-65-.78-5.14-.74-9.55,3.46-12.47,3.77-2.62,6.37,1.06,7.58,5.86C3813.21,758,3814,769.08,3814.07,777.89Z"/><path class="cls-5" d="M3853.24,359.19c-.38,5.39-3.8,12.7-9,8.12-7.13-6.34-10.32-13-13.82-22.4-5.9-15.84-9-34.94-10.85-52-.54-5,0-10,4.1-12.81s6.52,1.52,7.39,6.11,1.62,12.07,2.54,17.27c2.94,16.65,6.22,32.71,16.91,46.14A14.57,14.57,0,0,1,3853.24,359.19Z"/><path class="cls-5" d="M3849.44,772.76a186.74,186.74,0,0,1-13.89,58.31c-2,4.72-4.14,6.63-8,3.36-3.36-2.84-3.31-8.35-1.63-13.45,2.58-7.85,5.93-17.15,8.11-26,2.72-11.06,4.1-24,2.42-35-.8-5.33-.53-10.34,3.77-12.66s6.26,2,7.42,6.73A70.46,70.46,0,0,1,3849.44,772.76Z"/><path class="cls-5" d="M3658.58,890.72a33.14,33.14,0,0,1-1.78,9c-7.06,18.79-17.36,35-34.71,44.92-4.81,2.76-7.53-.26-8.65-5s-.06-9.66,4.81-12.9a69.3,69.3,0,0,0,25.09-29.06c1.56-3.28,3-8.51,4.46-11.7s3.13-5.53,6.52-4.14S3658.14,887.44,3658.58,890.72Z"/><path class="cls-5" d="M3680.9,906.76a55.1,55.1,0,0,1-6.27,20.32,97.87,97.87,0,0,1-27.12,30.78,9,9,0,0,1-3,1.58c-4.31,1.29-6.78-1.12-7.8-5.5s-.25-9.15,3.64-12.06c6.06-4.51,10.77-8,15.91-14.1,6.12-7.32,11.36-16.14,13.45-25.78.79-3.61,2.49-6.71,6.25-5.49C3680.18,897.89,3680.44,902.92,3680.9,906.76Z"/><path class="cls-5" d="M3891.67,625.47c3.37-.13,4.23,4.61,5.07,8.55,2.09,9.76,5.68,22.54,10.43,31.86,2.49,4.89,5.13,7.89,9.68,10.13,4.88,2.4,6,7,5.19,11.79-.69,4.39-3.47,8.36-8.23,6.8-5.95-2-9.48-5-13-11-7.74-13.08-13.05-30.15-15.47-45C3884.27,632.29,3885.12,625.72,3891.67,625.47Z"/><path class="cls-5" d="M3721.82,523.38c6.27,2,6.75,9.42,5.9,15.44a58.06,58.06,0,0,1-7.41,19.71,93.26,93.26,0,0,1-24.09,26.32,4.07,4.07,0,0,1-1.16.65c-4.36,1.5-6.91-.46-7.88-5.14s-.08-9.77,3.74-13.2c4.82-4.32,8.84-6.78,13.36-12.13,5.95-7,10.77-15.13,12.39-24.75C3717.24,526.84,3718.57,524.61,3721.82,523.38Z"/><path class="cls-5" d="M3825,360.39c-.16,4.83-2.93,11.73-8.07,9.44-6.67-3-9-8.35-11.61-15.47C3801,342.69,3799,326,3798.8,314c-.12-6.15.33-12.63,5.47-14.28,5.58-1.79,6.1,5.34,6.44,10.91.38,6.28,1.35,18.33,3.18,25.55,1.39,5.48,3.15,10.86,7.33,14.52C3824.1,353.19,3825.06,357.36,3825,360.39Z"/><path class="cls-5" d="M3926.31,606.62c3.43,1.08,4.3,3.5,5.15,7,2.91,11.76,7.08,22.91,17.42,30,4.43,3,5,8.08,3.91,12.46s-3.66,7.7-8.23,5.12c-14.34-8.06-20.07-23.85-23.9-39C3919.07,615.8,3919.94,608.77,3926.31,606.62Z"/><path class="cls-5" d="M3968.76,945.29c-10.41-3.43-16.25-10.56-22.17-19.82a67.54,67.54,0,0,1-7.08-16c-1.27-4.53-1.35-10.28,2.18-13.11,4-3.22,6.18-.23,7.88,3.76,4.8,11.24,10.09,20.92,21.58,27,3.61,1.91,4.83,6.48,4.27,10.76C3974.89,942,3973.21,945,3968.76,945.29Z"/><path class="cls-5" d="M3753.52,545.89c-.18,6-2.7,14.75-6.47,19.78a78.8,78.8,0,0,1-17.73,17.67c-4.45,3.17-7.46.74-8.62-4.25a14.31,14.31,0,0,1,4.21-14c3.5-3.29,6.68-5.9,10.44-9.54a24.85,24.85,0,0,0,6.82-14.56c.44-4,2.08-9.33,6.79-7.84S3753.68,540.78,3753.52,545.89Z"/><path class="cls-5" d="M3920.28,905.68c3.68,1.69,4.74,3.89,5.45,8,1.91,11,4.58,21.5,12.42,30.1,2.92,3.2,3,8,2,11.78s-3.06,5.67-6.62,4.66c-2.85-.81-4.24-2.47-6-5.06-7.37-10.54-11.42-23.73-13.15-36.16C3913.53,913,3914.59,907.47,3920.28,905.68Z"/><path class="cls-1" d="M3452.53,1459.62c-6.1,1-12,1.89-18.14.69a23.18,23.18,0,0,1-5.84-1.76c-3.29-1.54-4.77-3.26-5.33-7.3-.79-5.81-2.38-11.58-7.11-15.65-1.43-1.23-1.37-2.85-1.32-4.4a71.74,71.74,0,0,1,6.22-27.73c4.7-10.47,11.07-19.64,17.09-29.17s11.6-19.07,15.33-29.52c1.09-3,.67-3.56-2.43-4.15-15.6-3-22.69-11.88-24-27.65a6,6,0,0,1,.2-3c3.93-7,5.85-14.88,10.26-21.55,4.21-6.36,8.64-12.18,15-16.45,5.72-3.83,12.12-6,17.66-10.31,1.08-.83,2.94-.54,4.38-.83,3-.61,5.11-2.45,5.09-5.71s-2-5.09-5.11-5.51c-3.6-.48-6.64.74-9.75,2.39-1.8,1-3.26,1.75-5.43,1.17-20-5.34-26.8-18.49-23.4-38,1.44-8.26,5.34-13.69,9.45-20,6.52-10,14.52-17.56,22.33-26.38,5.6-6.32,10.89-11.82,16.62-18.4,21-24.11,33.42-51.78,41.25-83.09,4.44-17.77,8.63-37.55,12.48-56,.87-4.21.49-6.49-3.42-10-7.19-6.53-9.33-16.55-7.61-26.71,1.43-8.39,5.16-16.89,9.05-24.6,4.69-9.28,8.81-18.46,15.09-27,1.06-1.46,1.26-3.66,1.64-6,3.75-23.35,1.33-47.48-.11-70.79-1.31-21.08-6.73-42.67,3.82-61.68s20.3-15.85,38.86-2.71c14.05,10,33.25,28.67,47.46,43.48,8.54,8.9,21,22.55,29.94,32.2,24.84,26.84,54.89,55.73,80.8,78.43,12.77,11.19,19.69,16.73,30.08,25.24,7.83,6.41,10,9.76,16.75,15.49a4,4,0,0,1,1.43,3.94c-.79,9.52-4.81,15.16-14.37,18.24-10.72,3.47-21.68,2.51-32.58-.73-1.56-.46-3.48-1.83-4.84-.87-1.8,1.25,0,3,.42,4.49,2.89,9.35,8.27,16.32,14.79,23.39,7.08,7.69,14.61,14,22.67,20.7,19.83,16.38,38.46,33.8,54.94,53.71a54.31,54.31,0,0,1,9.31,15.26c1.68,4.48,2.55,9.31.91,13.94-2.12,6-6.32,8.42-12.52,7.36a58.89,58.89,0,0,0-8.1-.88c-2.6-.11-5-.25-5,3.37s1.18,6.79,5,7.56a23.72,23.72,0,0,0,10,0,27.34,27.34,0,0,1,14.47.42c3.16,1,6.19.54,9.37.8,6.38.53,12.49.19,18.6,2.68,7.19,2.92,12.89,6.83,16.55,14.27,4.89,9.93,3.6,20.58-2.84,29.63-1.1,1.54-2.25,1.66-3.89,1.47-3-.35-5.84-.87-8.87-.24-3.61.74-6,2.78-6.62,6.52-.69,4.15,2.23,7.38,6.18,6.17a5.82,5.82,0,0,1,5.66.64c5.45,3.55,10.13,7.22,12.66,13.35,5.06,12.24,2,23.45-9.6,29.92-4.33,2.43-8.95,2.6-13.27,3.62s-4.46,1.09-2.43,5.39a77.27,77.27,0,0,0,13.21,19.54c13.56,14.48,28.27,27.82,43.06,41.08,6.93,6.2,14.18,12.25,20.39,19.31,4.44,5,8.63,10.67,10.69,17.19,3,9.35,1.83,17.88-4.62,25.31-7.53,8.68-16.32,11.56-27.46,11.22-4-.12-7.76-1.39-11.67-1.77-.54,1.27.53,2.21,1.14,3,7.78,10.51,16.88,19,26.48,27.69,11,9.89,22.32,19,31.79,30.53,8,9.72,13.58,21,14.47,33.63.84,11.87-3.72,20-14.47,24.64-8.54,3.71-17.08,3-25.84.84-7.07-1.74-14.06-4.87-20.94-6.67-4.76-1.24-4.72-.4-4.15,4.19.33,2.7,1.12,6.33,1,9.24-.45,13.72-6.38,25.18-20.32,28.18-17.49,3.77-31.22-1.32-45.78-10.55-7.94-5-14.2-12.2-20.66-19-5.75-6.07-11.3-12.4-18.27-17.18-3.24-2.23-6.5-3.31-10.38-2.53-2,.4-2.76,1.42-2.63,3.55s.8,4.71,1,7c1.09,11.37-3,20.29-14,24.08-6.78,2.33-12.79,1.16-19.39-.44a98.55,98.55,0,0,0-32.91-2.72c-2.33.21-3.52,1.2-4.41,3.56-1.28,3.37-3.89,5.81-6.91,7.73-2.27,1.44-2.85,3.1-2.87,5.71-.19,25-1.29,50.55-3.13,75.4-.53,7.26-5.13,14.31-11.87,15.31-19.44,2.9-37.51,3.86-56.8,1-11-1.61-15.47-7.92-17.22-19.37-3-19.41-3.75-41-4.25-61.07-.13-5.08-.16-10.63-.24-15.59,0-2.23-.54-2.75-2.59-2-4.58,1.63-8.89,2.91-13.85,1.84a13.33,13.33,0,0,1-8.81-5.66c-2.24-3.57-5.94-4.09-9.24-3.42-10.91,2.22-19.54,1.22-29.7-2.33a60,60,0,0,1-10-5c-5.32-3-9.28-2.7-14.3.78-7.52,5.21-15.08,9.53-24.27,11-18.7,3-32.13-3.81-44.78-16.88-4.44-4.58-4.55-4.94-10-1.87-9.11,5.12-18.6,9.72-29.14,11.65a34.79,34.79,0,0,1-6.49.78c-8.12,0-14.16-2.16-18.21-9.86s-3.76-15.71-.11-23.65c2.31-5,6-9.14,9.69-13.16,6.11-6.68,12.43-12.78,18.74-19.41C3448.93,1463.83,3451,1461.44,3452.53,1459.62Zm233.62,94.47c-.44-5.25-4.39-4-7.54-6.7,0,1.58.51,3.08.53,4.64.09,10.06-.1,19.68-2.35,29.6-2.95,13-7.08,23.52-18.88,30.72a2.3,2.3,0,0,0-1.38,2c-.23,6.32,2.34,10.79,8.94,11.77,2.93.44,3.92-.06,3.71-3.81-.7-12.13,1.19-23.2,9.74-32.66,5.75-6.37,7.89-13,8-21.37C3686.93,1563.48,3686.52,1558.55,3686.15,1554.09ZM3858,1160.4c-5.11-.27-10.13,0-15.34-.62a65.22,65.22,0,0,1-9.52-1.87c-11.21-2.94-17.87-10.7-20.06-22.08a7.54,7.54,0,0,1,.56-4.72c3-6.33,6.2-8,13.1-6.86a25.35,25.35,0,0,0,5.29.49c3-.16,6.92,1.87,8.63-1.55s-1.06-6.9-3.15-9.66c-11.48-15.2-24.71-28.6-38.57-41.51-15.07-14-31.57-25-45.36-40.7-7.7-8.77-13.72-17.08-17.45-29.5s5.77-18.56,18-15a68.06,68.06,0,0,0,12.84,2.15c5.76.5,12.58.37,17.25-1.77,3.39-1.55,6.27-3.38,2.7-6.51-15-13.11-21.92-18.1-39.47-33-31.88-27.09-66.78-61.43-96.43-94.63-15.68-17.56-35.82-37.88-54-52.89a60.33,60.33,0,0,0-13.58-8.67c-5.09-2.3-9.08-2.91-12.21,1.6-6.82,9.8-7.58,20.8-7.12,33,.63,16.45,3.07,36.29,3.24,52.6.24,23.69,1.16,46.12-12.49,65.5-6.08,8.63-9.7,16.73-13.68,26.12a33.32,33.32,0,0,0-2.54,11.94c-.12,4.85,1.87,7.8,6.59,7.84a18.82,18.82,0,0,0,8.24-2.13c10.52-4.74,15.44-14.26,21.45-23.68,1.72-2.69,2.27-5.83,5-8.06,4.95-4.08,9.64.54,10.77,6,.32,1.56.49,4.16.71,5.66.88,6,2.22,8.66,8.23,6.14,4.63-1.94,7.67-5.85,11.79-8.54,3.77-2.47,7.5-1.66,10.06,2.14s2.15,8-1.32,11.09a52,52,0,0,1-17.63,10.89c-7.41,2.7-13.95.82-18.9-5.33-2.28-2.81-3.24-2.32-4.88,0-6.25,9-12.74,15.37-23,19.18-2.84,1.06-3.58,2.53-4.21,5.43-4,18.55-8.45,39.41-12.75,57.52-9.05,38-24.57,71.55-51.16,99.82-9,9.59-16.92,17.86-25.2,27.85-6.55,7.9-12.76,15.43-14.68,25.89-1.57,8.5,2.28,15.62,10.14,19,3.29,1.4,6.69,1.32,10.07,1.78,7.33,1,14.79-.21,21.81,2.28,3,1.07,4.83.35,6.93-1.64,3.05-2.91,5.46-6.21,8.5-8.95,6.57-5.91,11.81-5.27,17.54,1.24,1.46,1.66,2.6,4,4,5.58,4.15,4.91,7.17,6.26,13.34,3.94a27.76,27.76,0,0,0,11-8.16c1.82-2.08,3.46-4.58,5.52-6.44,2.59-2.34,5.49-2.67,8.15-.31a6.23,6.23,0,0,1,.91,8.6c-6.57,9.63-13.87,17.16-25.34,20.26-8.79,2.38-16-1.33-21.65-7.53-4.89-5.38-5.43-6.16-10.65-1.12-4.17,4-9.48,6.74-13.69,10.9a62.33,62.33,0,0,1-13.8,10.84c-8.47,4.62-16.46,9-24,15.26s-13.92,13.5-16.29,23.34c-2.18,9.11,1.82,15.88,10.7,18.23,4.23,1.11,8.48,0,12.56,1.44,3.33,1.18,5.22,3.32,4.66,7a84.05,84.05,0,0,1-5.66,21c-6.37,14.66-15.94,27.37-24,41.12-5.59,9.6-10.25,19.85-10.93,30.9-.79,12.89,5,20.1,17.9,18.73,4.44-.47,8.45-2.2,12.76-3.1,4-.84,7.7-.94,9.14,3.61,1.25,4,1.4,8.38,1.79,12.61.13,1.45-.93,2.74-1.86,3.79-.18.21-.42.39-.62.59-10.37,10-20.66,19.84-30.19,30.68-3.19,3.62-6.52,7.55-7.68,12.31-1.33,5.42,1.42,10.26,7.08,10.21,7.38-.07,13.88-2.18,20.49-5.08,5.29-2.32,10.15-5.75,15.42-8,7.63-3.24,11.84-1.86,17.59,4,2,2,3.78,4.75,6.05,6.63,8.75,7.24,17.47,11.26,29,9.35,9.34-1.55,16.6-6.64,24.48-11.55,4.41-2.75,8.75-4,14-2.88,4.57,1,8.17,3.6,12.42,5.63,9.63,4.59,18.12,6.84,28.48,3a4.48,4.48,0,0,1,2.78-.15c3.72.95,7.34,1.85,11.1,2.84,2.45.65,4.8,1.81,6,4,1.95,3.47,4.38,4.06,7.86,3a33.87,33.87,0,0,0,9.3-4.42,246.15,246.15,0,0,0,26-20.61c3-2.65,6.15-4.33,10.06-2.31s5.35,5.6,5.43,10c.09,4.83-.17,10.26-.2,15.08,0,4.35,1.5,7.56,5,9.87a17.58,17.58,0,0,0,10,3.35c12.16,0,22.35-4.14,33-9.72,1.63-.85,2.24-2.49,2.74-4.12,1.55-5.06,3.53-7.84,9-8.5,15.16-1.83,29.31-1.26,44.1,2.8a18.57,18.57,0,0,0,11.67-.16c4-1.41,5.25-4.53,4.74-8.71-.26-2.19-1-4.74-1.25-6.94-1.27-9.67,1.33-15.61,10.79-18.62a20.75,20.75,0,0,1,6.86-1c8.18.18,14.08,4.42,20.18,9.42,9.08,7.45,15.87,17.26,24.69,24.86,12.12,10.45,24.45,17.29,40.8,16.38,11.46-.64,15.24-8,14.35-18.87-.25-3.1-1.26-6.71-1.55-10.1s.34-6.94,2.83-9.58c4.38-4.64,9.44-5.35,15.4-4.32,6.67,1.15,12.27,4.06,18.63,6,8,2.42,15.29,3.76,23.37.79,4.14-1.53,6.18-4.6,6.18-9.21a33.68,33.68,0,0,0-3-14.14c-6.25-12.89-16.25-22.44-26.72-31.67-17-15-33.09-29.9-46.34-48.19-2.9-4-5.16-4.15-9.33-1.95-2.25,1.18-4.29,3.14-6.52,4.48-4,2.4-7.77,5.33-12.56,6.11-18.67,3-31.54-2.9-44.1-16.71-3.54-3.89-6.26-8.59-9.64-12.54-2-2.31-2.91-2-4.1.94-2.67,6.65-4.77,13.45-9.48,19.43-12.9,16.38-25.61,18.4-41.38,4.48-2.3-2-2.38-6.16-5.53-5.7s-3.2,4.78-5,7.1c-7.65,9.87-14.63,19.57-28.35,20.47-12.15.81-17.47-8.72-14.29-20.09a81.45,81.45,0,0,1,5.92-14.07c1.43-2.81,3.89-4.64,7.14-3.15s4.61,4.28,3.77,8c-.77,3.49-2.82,7.11-4.24,10.49-.65,1.54-1.78,3.43-.5,4.86s3,.72,4.57.16a26.13,26.13,0,0,0,13-10.2c3.73-5.27,6.58-11.3,10.38-16.45,5.28-7.14,10.76-6.79,16,.19,2.33,3.11,3.9,7,7,9.67,6.48,5.47,13,5.38,19.17-.52,2.83-2.68,4.58-6.26,6.27-9.72,2.25-4.58,3.58-10.07,6.05-14.44,4.65-8.23,10.83-10.46,18.76-4.5,5.29,4,7.3,8.9,12,14.53,13.72,16.25,26.6,21.19,45.51,8.08,4.17-2.89,7.59-5.62,12.92-5.88,1.19,0,1.87-1,2.58-1.89,2.26-3,4.89-3.53,8.27-2.15a74.86,74.86,0,0,0,17.41,4.95c8.39,1.3,15.69,1.09,21.92-5.43,4.12-4.32,4.71-8.82,2.32-14.35-2.59-6-7.24-11.07-12-15.51-16.83-15.76-34.4-30.34-50.51-46.88-7.91-8.13-15.37-16.4-21-26.53-3.34-6.05-5.66-12.81-9.67-18.8-1.95-2.92-.48-7.09,2.62-8.78,2.14-1.17,4.41-1.1,6.74-1.17,6.41-.19,12.68-.53,18.66-3.1,6.32-2.72,7.18-7.84,3.51-13.54-2.72-4.22-7.1-6.28-11.76-8.08-7.26-2.79-14.38-4.42-20.33-9.91-2.4-2.22-4.57-4.22-3.52-8.09.92-3.37,4.92-5.86,8.48-6,7.78-.24,14.84-1.47,21.13-6.21,8.83-6.66,8.06-16-.23-22.75a17.53,17.53,0,0,0-7.55-3.13C3871.43,1160.48,3864.71,1160.75,3858,1160.4ZM3652.62,1555c.17,13.17,1.25,26.08,1.83,39.17.06,1.26-.24,2.93,1.1,3.48s2.1-1,2.78-2a33,33,0,0,0,4.76-10.21c5.1-19.7,4.21-37.56-1.55-57-.18-.6-.08-1.19-1-1.19-3.05,0-7.88,5.39-8,8C3652.33,1542.23,3652.53,1548.44,3652.62,1555Zm51.67,71.82c.09-.49.19-.94.28-1.43a19.07,19.07,0,0,1-2.42-8.83c-.34-7.48-.56-14.84-.65-22.28-.15-12.34-.16-24.61-.19-37,0-1.28.56-3.46-1.36-3.35s-1.16,2.21-1.16,3.54c0,5.45.25,11,0,16.46-.35,8.21-2.65,15.58-8.19,21.46-8.27,8.78-9.66,17.84-9.74,29.17,0,2,.79,2.24,2.17,2.27C3690.21,1627,3697.18,1626.77,3704.29,1626.83Zm9.37-2.09c3.6.73,5.13-.62,5.26-4.18.16-4.06.27-8,.51-12,1.09-18.66,2.2-37.22,2.23-55.94,0-1.1.67-2.44-.73-3.18-2.22-1.17-7.52,2.25-7.51,4.6.13,21,.16,41.5,1,62.37C3714.59,1619.25,3714.81,1622,3713.66,1624.74Z"/><path class="cls-2" d="M3858,1160.4c6.76.35,13.48.08,20.07,1.48a17.53,17.53,0,0,1,7.55,3.13c8.29,6.73,9.07,16.1.23,22.75-6.3,4.73-13.34,6-21.13,6.21-3.56.12-7.56,2.61-8.48,6-1.06,3.87,1.12,5.87,3.52,8.09,5.95,5.49,13.07,7.12,20.33,9.91,4.66,1.8,9.05,3.86,11.76,8.08,3.66,5.7,2.82,10.82-3.51,13.54-6,2.56-12.24,2.91-18.66,3.1-2.33.07-4.6,0-6.74,1.17-3.1,1.69-4.57,5.86-2.62,8.78,4,6,6.33,12.75,9.67,18.8,5.59,10.13,13,18.4,21,26.53,16.1,16.54,33.69,31.12,50.51,46.88,4.74,4.44,9.41,9.52,12,15.51,2.39,5.53,1.81,10-2.32,14.35-6.24,6.52-13.53,6.73-21.92,5.43a74.86,74.86,0,0,1-17.41-4.95c-3.38-1.38-6-.86-8.27,2.15-.7.93-1.39,1.84-2.58,1.89-5.32.26-8.76,3-12.92,5.87-18.9,13.12-31.79,8.18-45.51-8.07-4.75-5.63-6.74-10.55-12-14.52-8-6-14.12-3.74-18.77,4.49-2.47,4.37-3.8,9.86-6.05,14.44-1.69,3.46-3.44,7-6.27,9.72-6.2,5.89-12.69,6-19.17.52-3.1-2.62-4.67-6.56-7-9.67-5.24-7-10.72-7.33-16-.19-3.8,5.15-6.65,11.18-10.38,16.45a26.13,26.13,0,0,1-13,10.2c-1.59.56-3.3,1.27-4.57-.16s-.15-3.32.5-4.86c1.42-3.38,3.47-7,4.24-10.49.84-3.77-.51-6.55-3.77-8s-5.71.34-7.14,3.15a81.45,81.45,0,0,0-5.92,14.07c-3.18,11.37,2.14,20.9,14.29,20.09,13.71-.9,20.7-10.6,28.35-20.47,1.8-2.32,1.85-6.64,5-7.1s3.22,3.67,5.53,5.7c15.78,13.92,28.48,11.9,41.37-4.48,4.72-6,6.82-12.78,9.49-19.43,1.19-3,2.13-3.25,4.1-.94,3.38,4,6.09,8.65,9.64,12.54,12.57,13.81,25.42,19.72,44.11,16.71,4.79-.77,8.53-3.71,12.55-6.11,2.24-1.34,4.27-3.3,6.51-4.48,4.17-2.2,6.44-2.06,9.35,1.95,13.24,18.29,29.28,33.18,46.33,48.2,10.49,9.23,20.46,18.76,26.72,31.66a33.67,33.67,0,0,1,3,14.13c0,4.62-2,7.69-6.18,9.22-8.08,3-15.39,1.63-23.37-.79-6.36-1.92-12-4.83-18.63-6-6-1-11-.32-15.4,4.32-2.49,2.64-3.11,6.19-2.83,9.58s1.29,7,1.55,10.1c.9,10.86-2.89,18.23-14.36,18.87-16.35.91-28.66-5.93-40.78-16.37-8.83-7.61-15.62-17.42-24.7-24.87-6.09-5-12-9.25-20.18-9.42a20.69,20.69,0,0,0-6.85,1c-9.47,3-12.07,9-10.8,18.62.3,2.2,1,4.75,1.25,6.94.51,4.18-.74,7.3-4.74,8.71a18.63,18.63,0,0,1-11.67.16c-14.8-4.06-28.93-4.63-44.1-2.8-5.49.66-7.47,3.44-9,8.5-.5,1.63-1.1,3.27-2.74,4.12-10.65,5.58-20.84,9.71-33,9.72a17.58,17.58,0,0,1-10-3.35c-3.51-2.31-5-5.52-5-9.87,0-4.82.29-10.25.2-15.08-.08-4.42-1.52-8-5.43-10s-7.09-.34-10.06,2.31a246.15,246.15,0,0,1-26,20.61,33.87,33.87,0,0,1-9.3,4.42c-3.48,1.09-5.91.5-7.86-3-1.24-2.22-3.59-3.38-6-4-3.76-1-7.38-1.89-11.1-2.84a4.45,4.45,0,0,0-2.77.15c-10.37,3.83-18.85,1.58-28.49-3-4.25-2-7.85-4.62-12.42-5.63-5.21-1.17-9.55.13-14,2.88-7.88,4.91-15.14,10-24.48,11.55-11.5,1.92-20.22-2.11-29-9.35-2.27-1.88-4.07-4.63-6.05-6.63-5.75-5.82-10-7.2-17.59-4-5.27,2.24-10.13,5.67-15.42,8-6.61,2.9-13.1,5-20.49,5.08-5.66,0-8.41-4.78-7.08-10.21,1.16-4.76,4.5-8.69,7.68-12.31,9.53-10.84,19.82-20.71,30.19-30.68.2-.2.44-.38.62-.59.93-1.05,2-2.34,1.86-3.79-.39-4.23-.54-8.63-1.79-12.61-1.44-4.55-5.14-4.45-9.14-3.61-4.31.9-8.32,2.63-12.76,3.1-12.89,1.37-18.69-5.84-17.9-18.73.68-11.06,5.35-21.29,10.93-30.9,8-13.76,17.61-26.45,24-41.12a84.17,84.17,0,0,0,5.66-21c.56-3.71-1.33-5.85-4.66-7-4.08-1.44-8.34-.33-12.56-1.44-8.87-2.34-12.89-9.12-10.7-18.23,2.37-9.84,8.71-17.09,16.29-23.34s15.58-10.64,24-15.26a62.33,62.33,0,0,0,13.8-10.84c4.21-4.16,9.52-6.88,13.69-10.9,5.23-5,5.76-4.26,10.65,1.11,5.66,6.21,12.85,9.92,21.65,7.54,11.48-3.09,18.76-10.64,25.34-20.26a6.24,6.24,0,0,0-.91-8.6c-2.66-2.36-5.56-2-8.15.31-2.06,1.86-3.7,4.36-5.52,6.44a27.76,27.76,0,0,1-11,8.16c-6.18,2.32-9.19,1-13.34-3.94-1.37-1.61-2.5-3.92-4-5.58-5.73-6.51-11-7.15-17.54-1.24-3,2.74-5.45,6-8.5,8.95-2.1,2-3.92,2.71-6.93,1.64-7-2.49-14.48-1.26-21.81-2.28-3.38-.46-6.78-.38-10.07-1.78-7.86-3.34-11.71-10.46-10.14-19,1.92-10.45,8.12-18,14.68-25.89,8.29-10,16.17-18.26,25.2-27.85,26.63-28.26,42.06-61.83,51.18-99.81,4.35-18.1,8.65-39,12.73-57.53.64-2.89,1.36-4.37,4.21-5.43,10.22-3.81,16.71-10.15,23-19.18,1.64-2.37,2.6-2.86,4.88,0,4.95,6.15,11.49,8,18.9,5.33a51.94,51.94,0,0,0,17.63-10.89c3.47-3.11,3.89-7.28,1.32-11.09s-6.29-4.61-10.06-2.14c-4.12,2.69-7.16,6.6-11.79,8.54-6,2.52-7.35-.11-8.23-6.14-.22-1.5-.39-4.1-.71-5.66-1.13-5.48-5.82-10.1-10.77-6-2.69,2.23-3.25,5.37-5,8.06-6,9.42-10.93,18.94-21.45,23.68a18.82,18.82,0,0,1-8.24,2.13c-4.72,0-6.72-3-6.59-7.84a33.1,33.1,0,0,1,2.54-11.94c4-9.39,7.58-17.49,13.68-26.12,13.7-19.37,12.68-41.82,12.49-65.5-.13-16.3-2.63-36.15-3.24-52.6-.46-12.19.3-23.2,7.12-33,3.13-4.51,7.12-3.9,12.21-1.6a60,60,0,0,1,13.58,8.68c18.21,15,38.36,35.32,54,52.88,29.63,33.19,64.58,67.55,96.42,94.63,17.53,14.91,24.55,19.92,39.48,33,3.56,3.13.69,5-2.7,6.51-4.67,2.14-11.49,2.27-17.25,1.77a67.83,67.83,0,0,1-12.83-2.15c-12.24-3.53-21.76,2.61-18,15s9.71,20.72,17.44,29.5c13.82,15.72,30.26,26.65,45.37,40.7,13.89,12.92,27,26.3,38.57,41.51,2.09,2.76,4.84,6.25,3.14,9.66s-5.67,1.39-8.63,1.55a25.35,25.35,0,0,1-5.29-.49c-6.9-1.13-10.06.53-13.1,6.86a7.54,7.54,0,0,0-.56,4.72c2.18,11.38,8.85,19.14,20.06,22.08a65.22,65.22,0,0,0,9.52,1.87C3847.82,1160.37,3852.84,1160.13,3858,1160.4Zm-290.83,196a13.3,13.3,0,0,0,0-1.78c-.38-4-1.65-9.06-6.53-8.65s-5.51,4.52-5.71,9a18.17,18.17,0,0,1-2.69,9c-5.36,7.75-12.09,12.94-20.54,17-2.84,1.37-5.73,2.18-8.07,4.29s-3.3,4.86-2,7.78,3.82,4.67,7.06,3.38c11.6-4.63,21.39-10,29.81-19.69A34.77,34.77,0,0,0,3567.12,1356.39Zm167.16-121.17c-5,.2-6.55,5-6.06,10.19a112.89,112.89,0,0,0,6.29,27.68c3.26,8.61,8.79,16,16.56,20.29,4.13,2.29,7.5,2,9.51-2s.2-7.05-3.86-9.67a29.19,29.19,0,0,1-11.61-15.4,99.82,99.82,0,0,1-4.65-23C3740.12,1238.81,3738.69,1235,3734.28,1235.22Zm-133.9-99.39c-.11-4.49-.85-8.7-6-8.61s-6,5.31-6,10.6a26.28,26.28,0,0,1-3.81,12.4c-5,7.79-12.51,14.06-19.52,19.33-3.9,2.93-5.25,6.34-2.87,10s5.64,3.76,9.45,1.14c7.56-5.18,14.75-10.69,20.54-18.85A44.83,44.83,0,0,0,3600.38,1135.83Zm153.73-43.42c0-3.14-1.88-5.39-4.28-7.14-11.21-8.16-17.66-19.11-22.52-31.47-1.69-4.3-3.95-6.5-8.06-5.35s-5,5.34-3.95,9.31a63,63,0,0,0,3.77,9.41c5.76,12.4,13.85,21.79,24.89,29.8a6.4,6.4,0,0,0,7.08.69A5.69,5.69,0,0,0,3754.11,1092.41Zm-157.73,279.33c-.59-3.48-.88-6.84-5.09-7.61-3.8-.69-5.91,1.84-7,5.73a28,28,0,0,1-8.26,13.24c-4.65,4.12-10.49,6.69-15.58,9.68-3.45,2-5,5.09-3.6,8.64s4.45,4.84,8.16,3.23c9.06-3.91,17.22-8.89,23.88-16.65A35.1,35.1,0,0,0,3596.38,1371.74Zm111.54-102.24c1.32,9.38,3.59,17.71,9.45,25.26a15.43,15.43,0,0,0,9,5.69c3.31.78,6.1-.18,7.24-3.7a7,7,0,0,0-3.25-8.56c-7-4.34-8.65-10.49-9.73-18.24-.29-2.1,0-4.3-.63-6.21-.91-2.68-2.41-4.62-5.3-4.79s-4.54,1.36-5.73,4.07A18.62,18.62,0,0,0,3707.92,1269.5Zm15.23-184.87a7.42,7.42,0,0,0-1.57-5c-5.93-7.39-10.53-16.26-14.08-24.65-1.8-4.25-4.85-6.6-8.8-4.69s-4,5.92-2.56,10a98,98,0,0,0,9.86,19.83,42.31,42.31,0,0,0,7.18,8.86,6,6,0,0,0,7,1C3722.33,1089,3723.08,1087,3723.15,1084.63Zm-101.62,62.76c-.49-2.89-1.33-6.1-4.43-6.93-3.48-.93-5.74.82-6.86,4.09a75.31,75.31,0,0,1-12,21.31c-2.66,3.4-3.19,6.81-.55,9.77s6.18,2.36,9-.67a64.89,64.89,0,0,0,13.5-22C3620.79,1151.15,3621.06,1149.21,3621.53,1147.39Z"/><path class="cls-3" d="M3652.62,1555c-.08-6.57-.29-12.78,0-19.72.1-2.66,4.93-8.06,8-8,.89,0,.8.59,1,1.19,5.76,19.45,6.66,37.33,1.54,57a32.76,32.76,0,0,1-4.75,10.21c-.68,1-1.44,2.55-2.78,2s-1-2.22-1.1-3.48C3653.88,1581.1,3652.79,1568.18,3652.62,1555Z"/><path class="cls-3" d="M3704.29,1626.83c-7.11-.06-14.08.19-21.24,0-1.38,0-2.17-.26-2.16-2.27.06-11.34,1.47-20.38,9.73-29.17,5.53-5.89,7.85-13.24,8.19-21.46.23-5.43,0-11,0-16.46,0-1.33-.76-3.43,1.16-3.54s1.35,2.07,1.36,3.35c0,12.36,0,24.63.19,37,.09,7.44.31,14.8.65,22.28a19.07,19.07,0,0,0,2.42,8.83C3704.48,1625.89,3704.38,1626.34,3704.29,1626.83Z"/><path class="cls-3" d="M3686.21,1554c.17,4.77.76,9.4.69,14.21-.14,8.46-2.22,15-8,21.39-8.56,9.5-10.43,20.53-9.74,32.67.21,3.75-.78,4.25-3.71,3.81-6.6-1-9.17-5.46-8.94-11.77a2.3,2.3,0,0,1,1.38-2c11.82-7.2,15.9-17.73,18.88-30.72,2.27-9.91,2.38-19.54,2.38-29.6Q3682.67,1553,3686.21,1554Z"/><path class="cls-3" d="M3713.66,1624.74c1.14-2.71.93-5.49.81-8.33-.89-20.87-.93-41.36-1-62.36,0-2.35,5.27-5.79,7.49-4.61,1.42.74.74,2.08.74,3.18,0,18.72-1.15,37.27-2.23,55.94-.23,4-.36,7.94-.51,12C3718.79,1624.13,3717.26,1625.47,3713.66,1624.74Z"/><path class="cls-2" d="M3686.2,1554l-7-2-.57-4.63C3681.9,1549.9,3685.51,1549.13,3686.2,1554Z"/><path class="cls-5" d="M3567.12,1356.39a34.83,34.83,0,0,1-8.64,20.35c-8.4,9.68-18.22,15.06-29.81,19.69-3.23,1.29-5.75-.46-7.06-3.38s-.36-5.68,2-7.78,5.22-2.92,8.07-4.29c8.45-4.06,15.18-9.25,20.54-17a18.17,18.17,0,0,0,2.69-9c.2-4.53.84-8.65,5.71-9s6.15,4.61,6.53,8.65A13.3,13.3,0,0,1,3567.12,1356.39Z"/><path class="cls-5" d="M3734.28,1235.22c4.41-.18,5.84,3.59,6.18,8.06a99.21,99.21,0,0,0,4.65,23,29.23,29.23,0,0,0,11.61,15.41c4.06,2.62,5.88,5.65,3.86,9.67s-5.38,4.27-9.51,2c-7.76-4.3-13.3-11.68-16.56-20.29a112.89,112.89,0,0,1-6.29-27.68C3727.72,1240.19,3729.24,1235.42,3734.28,1235.22Z"/><path class="cls-5" d="M3600.38,1135.83a44.83,44.83,0,0,1-8.26,26c-5.78,8.16-13,13.67-20.54,18.85-3.81,2.62-7.07,2.55-9.45-1.14s-1-7.1,2.87-10c7-5.28,14.54-11.54,19.52-19.33a26.28,26.28,0,0,0,3.81-12.4c0-5.29.85-10.51,6-10.6S3600.27,1131.34,3600.38,1135.83Z"/><path class="cls-5" d="M3754.11,1092.4a5.69,5.69,0,0,1-3.07,5.26,6.4,6.4,0,0,1-7.08-.69,74.66,74.66,0,0,1-24.9-29.8,63.61,63.61,0,0,1-3.76-9.41c-1.09-4-.16-8.15,3.95-9.31s6.38,1,8.07,5.35c4.85,12.36,11.3,23.31,22.51,31.47C3752.23,1087,3754.14,1089.27,3754.11,1092.4Z"/><path class="cls-5" d="M3596.38,1371.74a35.05,35.05,0,0,1-7.47,16.26c-6.67,7.75-14.81,12.74-23.88,16.65-3.71,1.61-6.75.31-8.16-3.23s.15-6.61,3.6-8.64c5.09-3,10.93-5.56,15.58-9.67a28.06,28.06,0,0,0,8.26-13.25c1.07-3.89,3.18-6.42,7-5.73C3595.5,1364.9,3595.79,1368.26,3596.38,1371.74Z"/><path class="cls-5" d="M3707.92,1269.5a18.62,18.62,0,0,1,1-6.48c1.19-2.71,2.83-4.24,5.73-4.07s4.39,2.11,5.3,4.79c.65,1.91.34,4.11.63,6.21,1.08,7.75,2.7,13.9,9.73,18.24a7,7,0,0,1,3.25,8.56c-1.14,3.52-3.93,4.48-7.24,3.7a15.43,15.43,0,0,1-9-5.69C3711.51,1287.21,3709.24,1278.88,3707.92,1269.5Z"/><path class="cls-5" d="M3723.15,1084.62c-.07,2.36-.82,4.35-3,5.39a5.94,5.94,0,0,1-7-1,42.31,42.31,0,0,1-7.18-8.86,97.49,97.49,0,0,1-9.86-19.83c-1.46-4.08-1.39-8.1,2.56-10s7,.44,8.8,4.69c3.55,8.39,8.15,17.26,14.08,24.65A7.46,7.46,0,0,1,3723.15,1084.62Z"/><path class="cls-5" d="M3621.53,1147.39c-.47,1.82-.74,3.76-1.35,5.52a64.89,64.89,0,0,1-13.5,22c-2.79,3-6.34,3.62-9,.67s-2.11-6.37.55-9.77a75.56,75.56,0,0,0,12-21.31c1.12-3.27,3.38-5,6.86-4.09C3620.2,1141.29,3621,1144.5,3621.53,1147.39Z"/><path class="cls-1" d="M3884.6,1668.07c-8.15,2.7-15.28,3.9-22.39,1.18a34.91,34.91,0,0,1-7.18-3.78c-3.77-2.6-6.05-6.57-6.58-15.29-.76-12.53-2.56-25.15-8.72-33.18-1.87-2.43-1.58-6-1.59-9.25a224.6,224.6,0,0,1,7.68-58.11c5.71-21.86,13.52-41.23,20.88-61.13,7.28-19.7,14.1-39.83,18.48-62.55,1.27-6.6.66-8-3.07-8.79-18.71-3.68-29.33-25.23-29.32-58.7,0-2.16-.26-4.83.3-6.39,5.1-14.18,7.12-31.18,12.71-45.1,5.33-13.28,10.68-26,18.47-34.52,7-7.68,14.85-12.4,21.41-21.68,1.27-1.8,3.52-1.24,5.32-1.73,3.8-1,6.29-5.06,6.32-12.17s-2.68-11.25-6.38-12c-4.23-.91-8.33.86-12,4.87-2.13,2.32-4.19,3.16-6.64,2.42-22.55-6.86-33.6-44.32-27.94-80.88,2.39-15.46,6.87-28.78,12.07-41.4,8.25-20,18.18-37.06,27.81-54.64,6.89-12.6,13.67-25.41,20.56-38,25.23-46.27,42-102,53.17-164q9.49-52.85,19.19-105.56c1.48-8,1.31-13.18-3-18.63-7.84-10-10.06-30.87-6.35-51.65,3-17.14,8.78-31.41,15.12-44.51,7.64-15.78,14.52-33.15,24.54-44.57,1.7-1.94,2.7-6.2,3.84-9.59,11.37-33.73,19.9-70.13,28.64-106.28,7.91-32.68,17.95-62.08,33.51-84.21,15.43-21.95,27.54-22.34,43,0,11.68,16.88,20.93,38.09,29.94,59.65,5.42,13,10.76,26.06,16.21,39,15.17,35.9,34.3,63,55.2,86.21,10.3,11.44,20.35,23.66,30.8,34.6,7.87,8.23,13.9,20.78,21.48,29.57,1.62,1.88,2.19,5.35,2.55,8.78,2.17,20.4-2,36.85-12.09,46.47-11.36,10.81-23.39,13.64-35.9,8.68-1.78-.7-4-2.72-5.21,0-1.65,3.52.62,6.59,1.41,9.81,4.9,20,13.35,34.53,22,48.68a457.36,457.36,0,0,0,29.76,42.34,666,666,0,0,1,69.74,111,141.91,141.91,0,0,1,11.94,31.89c2.23,9.58,3.47,19.43,1.67,29.81-2.35,13.43-8.09,19.25-15.3,16.42-3.23-1.27-6.62-1.27-9.93-1.4-2.86-.12-6.2-1.67-6.39,7.29-.18,8.69,1.52,14.48,5.88,15.39,3.93.82,7.95,1.15,11.9-.94,5.71-3,11.48-3.46,17.25-.28,3.75,2.07,7.62,1,11.43,1.19,7.66.42,15.36.24,22.78,4.58,8.71,5.1,15.94,14.07,20.66,29,6.3,19.91,4.75,45.14-3.56,62.28-1.42,2.92-2.82,3.72-4.82,3.1a18.2,18.2,0,0,0-11-.29c-4.33,1.34-7.38,5.79-8.19,14.13-.9,9.24,3.27,16.38,7.89,12.77,2.79-2.18,4.72-.9,7,1.21,6.68,6.34,12.27,14.9,15.81,27.46,7.09,25.09,1.94,52.23-12,63.38-5.24,4.19-10.79,6.32-16.4,8s-5.59,1.6-2.95,11.39a188.06,188.06,0,0,0,16.56,41.67c16.79,30.65,34.74,58.83,53,86.28,8.56,12.84,17.22,25.48,24.92,40.15a131,131,0,0,1,13.13,35.85c4,20,2.05,37.92-5.78,53.28-9.15,17.95-20.54,26-33.8,24.06-4.78-.69-9.51-2.36-14.24-3.58-.78,3.41.73,4.75,1.43,6.5,9.11,22.44,20.45,40.69,32,58.49,13.23,20.33,26.88,39.77,38.41,63.65a173.47,173.47,0,0,1,17.54,70.31c1,25.84-4.84,42.77-17.88,51.73-10.36,7.12-20.92,7.07-31.46,1.79-8.51-4.26-16.85-9.71-25.38-13.89-5.9-2.9-6-2.13-5,8.7.61,6.39,1.16,12.87,1.28,19.35.52,30.58-8.86,53.57-24.94,59.67-20.19,7.66-38.62-1.64-55.69-22.1-9.31-11.15-17.41-24.89-25.08-39.66-6.83-13.17-13.82-26-22.22-35.85-3.92-4.57-8-7.22-12.79-5.24-2.51,1-3.52,3.08-3.24,7.46.31,4.91.76,9.78,1.22,14.65,2.27,24.36-4.55,44.38-17.43,50.79-7.94,4-15.83,2.92-23.69-1.15-13.17-6.82-26.59-7.76-40.15-5.69-2.78.43-4.4,2.14-5.43,7.45a29.91,29.91,0,0,1-8.58,16.27c-2.79,2.73-3.5,6.41-3.54,11.9-.32,52.72-2.4,105.26-4.93,157.76-.74,15.32-7.05,30.31-15,32.23-23,5.54-46.19,7.16-69.26,1.62-13.15-3.16-18.91-15.63-20.82-40.67-3.22-42.43-4-85.17-4.22-128-.06-10.84-.26-21.69-.2-32.54,0-4.85-.7-5.88-3.16-4.16-5.51,3.85-11.16,6.38-17.11,4-4.34-1.76-8.42-4.57-10.87-12-2.81-8.46-7.68-8.7-11.45-7-12.49,5.53-24.45,2.94-36.24-4.9a64.45,64.45,0,0,1-12.22-10.56c-6.18-6.88-11.6-6.43-17.51,1.61-8.86,12-18.95,19.53-29.74,23.19-21.92,7.44-40-6.23-54.86-36-5.22-10.45-5.25-10.94-12.05-3.94-11.32,11.65-23.13,20.51-36,24.1a49.93,49.93,0,0,1-7.95,1.51c-9.54,1-17.48-4.44-22.39-20.58a84.51,84.51,0,0,1,.18-49.62,136.14,136.14,0,0,1,11.94-27.34c7.5-13.64,15.26-26.82,22.86-40.27C3880.13,1677.08,3881.87,1673.4,3884.6,1668.07Zm286.13,198.31c.12-11.64-6.37-8.4-9.25-13.81q.32,4.83.65,9.66c.22,20.81-.34,41.55-3.22,61.71-3.78,26.43-8.58,51.88-23.67,64-1,.77-1.57,1.84-1.75,4-1.1,13.63,3.06,23.22,10.7,25,3.39.78,5,.27,4.65-7.79-1.16-26,1.4-50.47,12.5-68.53,7.46-12.14,10.12-27.15,10.12-44.54C4171.45,1886.15,4171,1876.27,4170.73,1866.38Zm210-826.24c-6.17,0-12.35.38-18.5-.15-3.79-.32-7.54-2.21-11.33-3.08-12.48-2.88-22.62-21.55-23.95-44.42a32.93,32.93,0,0,1,.64-10c3.69-14.66,7.22-18,15.9-15.34a14.34,14.34,0,0,0,6.47.65c3.68-.6,8.77,3.34,10.65-3.66,2-7.4-1.65-14.71-4.24-20.58-14.23-32.24-31.05-59.5-48.44-85.59-18.91-28.37-39.91-51.6-58-81.91a217.65,217.65,0,0,1-24.72-58.95c-5.79-22.74,2.65-44,16-41.8a43.45,43.45,0,0,0,14,.26c6.61-1,13.31-2.22,19.14-9.17,4.24-5,4.81-11.74,1.43-16-14.15-18-28.68-34.89-43.53-50.85-27-29-50.39-65.4-68.81-112.72-9.74-25-19.74-49.88-32.32-70.57-3.27-5.38-6.72-10.15-10.68-13.56-4.56-3.94-8.93-3.67-13.23,1.77-9.37,11.85-17.15,26.63-23.17,44.34-8.12,23.9-13.18,50.76-20.3,75.59-10.33,36-16.52,77-36.42,102-8.87,11.14-15.17,28.53-21.33,45.21a88.73,88.73,0,0,0-4.68,22.26c-.94,9.82,1.76,15.26,7.21,15.45,3.53.12,6.9-1.67,10.29-3.16,12.91-5.68,20.58-24.21,29-40.88,2.4-4.76,4.55-9.94,7.59-13.32,5.59-6.21,11.43-.23,11.57,11.8,0,3.4-.13,6.81-.14,10.22,0,13.64,1.65,15.87,8.74,11.8,5.47-3.14,10.21-9,15.17-14,4.55-4.66,8.84-2.93,11,3.62a21.94,21.94,0,0,1-3.08,20.05c-6.57,8.66-13.72,15.22-21.54,19-8.36,4.06-16.14,2.66-21.5-11.34-2.46-6.42-3.7-4.62-5.9-.34-8.35,16.28-18.16,28.23-30.24,32.19-3.37,1.11-4.72,3.88-5.73,9.52-6.47,36.12-13.4,72-19.63,108.23-13.1,76.11-34.08,142.87-65.71,197.67-10.73,18.58-21.12,37.9-31.15,57.77-7.94,15.72-16.09,31.57-18.66,54-2.09,18.22,2.7,34.43,12.19,40.3,4,2.46,8.16,2.62,12.25,3.89,8.86,2.73,18.15-1.31,26.66,5.19,3.67,2.79,6.07.87,8.48-3.36,3.52-6.17,6.85-12.69,10.4-18.8,7.64-13.18,14.83-12.16,21.35,2.92,1.67,3.86,3.1,8.08,4.75,12,5,11.74,8.63,13.63,16.15,8.6,5.28-3.53,9.73-9.33,13.43-17.17,2.19-4.64,4.3-9.48,6.76-13.58,3.1-5.17,6.72-5.71,10-.6,3.39,5.28,3.31,12.27,1,18.4-7.75,20.56-17.38,37-31,42.59-10.43,4.29-19.47-1.48-26.49-16.74-6.07-13.21-6.38-14.07-12.73-2.42-5.08,9.31-11.84,13.84-16.78,22.82-5.07,9.24-10.46,17.27-16.84,22.87a202.2,202.2,0,0,0-29.25,31.95,104.86,104.86,0,0,0-20.27,49.09c-3,19.87,2.44,35.1,13.17,38.77,5.11,1.75,10.33.15,15.35,3,4.1,2.28,6.46,7.1,5.76,15a301.56,301.56,0,0,1-6.82,44.41c-7.59,31.34-19.17,58-29.1,86.53-6.93,19.92-12.43,40.51-13.57,65-1.33,28.52,7.15,44.62,22.34,39.64a154.92,154.92,0,0,0,15.57-6.52c4.78-2.18,9.85-1.94,11.32,7.63a252.68,252.68,0,0,1,2.19,26.51,15.13,15.13,0,0,1-2.3,8c-.24.43-.5.81-.75,1.22-12.65,20.6-25.34,41.14-36.92,63.85-3.87,7.57-8,15-9.65,25.6-1.86,12,2.07,22,8.76,21.62,8.71-.54,17.18-3.94,25.18-10.44,6.39-5.2,12.52-11.56,18.93-16.68,9.28-7.42,14.39-5.15,21.5,8.43,2.44,4.66,4.68,9.75,7.34,13.94,10.23,16.18,21.72,24.33,35.46,20,11.16-3.52,20.64-13.3,30-24.33,5.21-6.18,10.89-8.6,17.15-6.08,5.49,2.2,10.16,7.63,15.13,11.91,11.25,9.69,22.68,16,34.95,6.34a3,3,0,0,1,3.41-.33c4.52,2.05,9.08,3.83,13.59,6,2.93,1.38,6,3.18,7.45,8.51,2.25,8.3,5.78,8.33,9.69,6.16a40.72,40.72,0,0,0,11.42-9.17,338.64,338.64,0,0,0,31.91-43c3.57-5.75,7.73-9.16,12.41-5s6.77,11.49,6.64,21.12c-.15,10.53-.06,21.09-.37,31.6-.29,9.49,1.93,16,6.1,20.73,3.76,4.27,7.75,6.78,12.24,7.06,14.62.9,27.73-8.38,40.47-20.29,2-1.82,2.83-4.84,3.37-8.67,1.68-11.89,4.49-16.52,11.06-17.89,18.15-3.76,36.2-4.16,53.92,5.9,4.74,2.69,9.54,2.37,14.27-.26s6.8-9.09,5.92-18.34c-.46-4.87-1-9.73-1.51-14.57-2.34-21.28,2-34.27,13.37-39.1a26.26,26.26,0,0,1,8.38-2.16c9.86-.69,17.38,9.35,24.71,19.67,10.94,15.38,19.44,35.65,29.93,52,14.39,22.41,30.31,36.79,49.68,34.19,13.58-1.82,19.6-15.33,17.58-39.93-.58-7-1.39-14-1.91-21-.56-7.67.39-14.16,3.45-20.26,5.39-10.75,11.94-11.27,18.85-9.11,7.74,2.41,15,8.29,22.46,12.5,9.38,5.29,18.78,8.16,28.39,1.56,4.93-3.39,7.61-9.13,7.62-19.35a119.21,119.21,0,0,0-3.61-29.61c-7.14-28.16-19.87-47.14-32.33-66.1-20.27-30.84-40.29-62-56.06-101.36-3.45-8.65-6.33-9.41-11.41-4-2.74,2.92-5.3,6.43-8,9.58-4.8,5.66-9.77,11-15.35,13.19-21.76,8.59-39.64-4.54-54.2-34.84-4.09-8.53-7.86-17.62-11.8-26.41-2.31-5.15-3.85-4.6-5.06,2a224.08,224.08,0,0,1-11.36,41.15c-13.54,34.56-35.34,38.52-51.25,9.57-2.32-4.21-3.63-13.27-6.69-12.21s-3.93,10-6,15.19c-8.76,22.23-18.38,41.67-34.59,43.88-14.38,2-22.89-17.51-18-42.78,2-10.17,4.47-20,7.19-29.59,1.76-6.17,5-9.72,8.81-6.78s5.94,8.38,4.82,17c-1,8-3.42,14.75-5.18,22.07-.8,3.34-2.22,7.22-.63,10.33,1.49,2.91,3.76,1.26,5.68.25,6.7-3.54,11.9-11.17,15.85-21.48,4.35-11.32,8.19-23.34,12.51-34.71,6-15.79,13.75-15.52,19.79.34,2.69,7.06,5,14.6,8.6,20.42,7.45,12.17,16.67,11.82,23.71-1.22a89,89,0,0,0,7.61-20.59c2.52-10.09,4.54-20.64,7.23-30.58,5.06-18.73,14.25-22.37,23.2-9.87,6,8.34,10,19.77,14.56,30.39,13.12,30.66,35.33,47.26,56.16,17,4.59-6.67,9.54-12.58,15.78-12.65,1.39,0,2.33-1.88,3.16-4,2.64-6.91,6.21-7.84,10.17-4.63,6.78,5.49,14,8.07,21.19,10.26,9.71,3,19.31,2.87,27-11.8,5.1-9.71,6-18,2.91-30.22-3.37-13.22-8.92-23.19-14.73-32.43-20.6-32.8-42.23-63.35-62-98-9.71-17-19.24-34.11-26.09-55.89-4.09-13-6.72-27.47-12-39.33-2.58-5.8-.56-15.47,3.23-18.84,2.62-2.33,5.43-2.66,8.29-2.63a38.59,38.59,0,0,0,23-7.06c7.79-5.4,9.32-16.27,4.4-28.75-3.65-9.24-9.11-13.24-14.68-16.56-8.67-5.17-17.79-7.86-25.05-19.68-2.93-4.77-5.76-8.64-4.48-16.74,1.11-7,6.27-13.36,10.6-13.1,9.44.58,18.12-4.71,25.94-13.71,11-12.65,10.59-35.68-.45-47.9a21.76,21.76,0,0,0-9.35-6.17C4397,1039.27,4388.88,1040.61,4380.74,1040.14ZM4129.5,1868.33c.26,27.25,1.29,54.43,1.82,81.64.05,2.62-.28,6.32,1.24,7.41s2.56-2.26,3.48-4.27c2.84-6.22,4.59-13.6,6-21.23,7.44-40,6.28-79.6-1.32-119-.23-1.21-.34-2.34-1.11-2.61-2.62-.93-10.15,12-10.13,17.22C4129.53,1841.1,4129.5,1854.71,4129.5,1868.33Zm62.15,150.26.39-2.95c-2.1-5.63-2.71-12.07-2.82-18.52q-.41-23.23-.39-46.48c0-25.73.27-51.45.33-77.18,0-2.67.87-7.4-1.62-7.21s-1.41,4.75-1.43,7.56c-.08,11.46.16,23-.16,34.39-.48,17.3-3.31,33.89-10.5,44.87-10.73,16.37-12.5,37.53-12.37,60.86,0,4.14,1,4.66,2.66,4.66Zm11.5-4.23c4.89,2.25,6.42-1.4,6.54-8.74.14-8.35.45-16.69.81-25,1.66-38.88,3.51-77.74,3.63-116.78,0-2.31.67-5.18-.72-6.81-2.17-2.56-9.59,5-9.54,9.88.45,43.34-.67,86.7.41,130C4204.43,2002.81,4204.82,2008.59,4203.15,2014.36Z"/><path class="cls-2" d="M4380.74,1040.14c8.14.47,16.3-.87,24.42,1.93a21.76,21.76,0,0,1,9.35,6.17c11,12.22,11.45,35.25.45,47.9-7.82,9-16.5,14.29-25.94,13.71-4.33-.26-9.49,6.05-10.6,13.1-1.28,8.1,1.55,12,4.48,16.74,7.26,11.82,16.38,14.51,25.05,19.68,5.57,3.32,11,7.32,14.68,16.56,4.92,12.48,3.39,23.35-4.4,28.75a38.59,38.59,0,0,1-23,7.06c-2.86,0-5.67.3-8.29,2.63-3.79,3.37-5.81,13-3.23,18.84,5.28,11.86,7.91,26.33,12,39.33,6.85,21.78,16.38,38.88,26.09,55.89,19.78,34.62,41.41,65.17,62,98,5.81,9.24,11.36,19.21,14.73,32.43,3.12,12.22,2.19,20.51-2.91,30.22-7.71,14.67-17.31,14.75-27,11.8-7.18-2.19-14.41-4.77-21.19-10.26-4-3.21-7.53-2.28-10.17,4.63-.83,2.16-1.77,4-3.16,4-6.24.07-11.19,6-15.78,12.65-20.83,30.28-43,13.68-56.16-17-4.54-10.62-8.61-22-14.56-30.39-8.95-12.5-18.14-8.86-23.2,9.87-2.69,9.94-4.71,20.49-7.23,30.58a89,89,0,0,1-7.61,20.59c-7,13-16.26,13.39-23.71,1.22-3.57-5.82-5.91-13.36-8.6-20.42-6-15.86-13.79-16.13-19.79-.34-4.32,11.37-8.16,23.39-12.51,34.71-3.95,10.31-9.15,17.94-15.85,21.48-1.92,1-4.19,2.66-5.68-.25-1.59-3.11-.17-7,.63-10.33,1.76-7.32,4.14-14.07,5.18-22.07,1.12-8.65-.95-14-4.82-17s-7.05.61-8.81,6.78c-2.72,9.55-5.23,19.42-7.19,29.59-4.85,25.27,3.66,44.74,18,42.78,16.21-2.21,25.83-21.65,34.59-43.88,2.05-5.21,2.94-14.14,6-15.19s4.37,8,6.69,12.21c15.91,29,37.71,25,51.25-9.57a224.08,224.08,0,0,0,11.36-41.15c1.21-6.56,2.75-7.11,5.06-2,3.94,8.79,7.71,17.88,11.8,26.41,14.56,30.3,32.44,43.43,54.2,34.84,5.58-2.2,10.55-7.53,15.35-13.19,2.67-3.15,5.23-6.66,8-9.58,5.08-5.44,8-4.68,11.41,4,15.77,39.41,35.79,70.52,56.06,101.36,12.46,19,25.19,37.94,32.33,66.1a119.21,119.21,0,0,1,3.61,29.61c0,10.22-2.69,16-7.62,19.35-9.61,6.6-19,3.73-28.39-1.56-7.48-4.21-14.72-10.09-22.46-12.5-6.91-2.16-13.46-1.64-18.85,9.11-3.06,6.1-4,12.59-3.45,20.26.52,7,1.33,14,1.91,21,2,24.6-4,38.11-17.58,39.93-19.37,2.6-35.29-11.78-49.68-34.19-10.49-16.33-19-36.6-29.93-52-7.33-10.32-14.85-20.36-24.71-19.67a26.26,26.26,0,0,0-8.38,2.16c-11.33,4.83-15.71,17.82-13.37,39.1.53,4.84,1.05,9.7,1.51,14.57.88,9.25-1.15,15.68-5.92,18.34s-9.53,3-14.27.26c-17.72-10.06-35.77-9.66-53.92-5.9-6.57,1.37-9.38,6-11.06,17.89-.54,3.83-1.41,6.85-3.37,8.67-12.74,11.91-25.85,21.19-40.47,20.29-4.49-.28-8.48-2.79-12.24-7.06-4.17-4.72-6.39-11.24-6.1-20.73.31-10.51.22-21.07.37-31.6.13-9.63-2-17-6.64-21.12s-8.84-.76-12.41,5a338.64,338.64,0,0,1-31.91,43,40.72,40.72,0,0,1-11.42,9.17c-3.91,2.17-7.44,2.14-9.69-6.16-1.44-5.33-4.52-7.13-7.45-8.51-4.51-2.12-9.07-3.9-13.59-6a3,3,0,0,0-3.41.33c-12.27,9.69-23.7,3.35-34.95-6.34-5-4.28-9.64-9.71-15.13-11.91-6.26-2.52-11.94-.1-17.15,6.08-9.32,11-18.8,20.81-30,24.33-13.74,4.34-25.23-3.81-35.46-20-2.66-4.19-4.9-9.28-7.34-13.94-7.11-13.58-12.22-15.85-21.5-8.43-6.41,5.12-12.54,11.48-18.93,16.68-8,6.5-16.47,9.9-25.18,10.44-6.69.42-10.62-9.59-8.76-21.62,1.63-10.56,5.78-18,9.65-25.6,11.58-22.71,24.27-43.25,36.92-63.85.25-.41.51-.79.75-1.22a15.13,15.13,0,0,0,2.3-8,252.68,252.68,0,0,0-2.19-26.51c-1.47-9.57-6.54-9.81-11.32-7.63a154.92,154.92,0,0,1-15.57,6.52c-15.19,5-23.67-11.12-22.34-39.64,1.14-24.45,6.64-45,13.57-65,9.93-28.57,21.51-55.19,29.1-86.53a301.56,301.56,0,0,0,6.82-44.41c.7-7.9-1.66-12.72-5.76-15-5-2.8-10.24-1.2-15.35-3-10.73-3.67-16.13-18.9-13.17-38.77a104.86,104.86,0,0,1,20.27-49.09,202.2,202.2,0,0,1,29.25-31.95c6.38-5.6,11.77-13.63,16.84-22.87,4.94-9,11.7-13.51,16.78-22.82,6.35-11.65,6.66-10.79,12.73,2.42,7,15.26,16.06,21,26.49,16.74,13.61-5.59,23.24-22,31-42.59,2.32-6.13,2.4-13.12-1-18.4-3.27-5.11-6.89-4.57-10,.6-2.46,4.1-4.57,8.94-6.76,13.58-3.7,7.84-8.15,13.64-13.43,17.17-7.52,5-11.11,3.14-16.15-8.6-1.65-3.87-3.08-8.09-4.75-12-6.52-15.08-13.71-16.1-21.35-2.92-3.55,6.11-6.88,12.63-10.4,18.8-2.41,4.23-4.81,6.15-8.48,3.36-8.51-6.5-17.8-2.46-26.66-5.19-4.09-1.27-8.29-1.43-12.25-3.89-9.49-5.87-14.28-22.08-12.19-40.3,2.57-22.39,10.72-38.24,18.66-54,10-19.87,20.42-39.19,31.15-57.77,31.63-54.8,52.61-121.56,65.71-197.67,6.23-36.26,13.16-72.11,19.63-108.23,1-5.64,2.36-8.41,5.73-9.52,12.08-4,21.89-15.91,30.24-32.19,2.2-4.28,3.44-6.08,5.9.34,5.36,14,13.14,15.4,21.5,11.34,7.82-3.81,15-10.37,21.54-19a21.94,21.94,0,0,0,3.08-20.05c-2.19-6.55-6.48-8.28-11-3.62-5,5.07-9.7,10.89-15.17,14-7.09,4.07-8.75,1.84-8.74-11.8,0-3.41.18-6.82.14-10.22-.14-12-6-18-11.57-11.8-3,3.38-5.19,8.56-7.59,13.32-8.39,16.67-16.06,35.2-29,40.88-3.39,1.49-6.76,3.28-10.29,3.16-5.45-.19-8.15-5.63-7.21-15.45a88.73,88.73,0,0,1,4.68-22.26c6.16-16.68,12.46-34.07,21.33-45.21,19.9-25,26.09-65.93,36.42-102,7.12-24.83,12.18-51.69,20.3-75.59,6-17.71,13.8-32.49,23.17-44.34,4.3-5.44,8.67-5.71,13.23-1.77,4,3.41,7.41,8.18,10.68,13.56,12.58,20.69,22.58,45.54,32.32,70.57,18.42,47.32,41.83,83.73,68.81,112.72,14.85,16,29.38,32.84,43.53,50.85,3.38,4.3,2.81,11-1.43,16-5.83,7-12.53,8.13-19.14,9.17a43.45,43.45,0,0,1-14-.26c-13.38-2.24-21.82,19.06-16,41.8a217.65,217.65,0,0,0,24.72,58.95c18.13,30.31,39.13,53.54,58,81.91,17.39,26.09,34.21,53.35,48.44,85.59,2.59,5.87,6.23,13.18,4.24,20.58-1.88,7-7,3.06-10.65,3.66a14.34,14.34,0,0,1-6.47-.65c-8.68-2.68-12.21.68-15.9,15.34a32.93,32.93,0,0,0-.64,10c1.33,22.87,11.47,41.54,23.95,44.42,3.79.87,7.54,2.76,11.33,3.08C4368.39,1040.52,4374.57,1040.14,4380.74,1040.14ZM4024,1451.86c0-1.23,0-2.48,0-3.71-.35-12.09-3.41-19.16-8.08-18.67s-7.09,7.07-6.88,19.11a52.61,52.61,0,0,1-3.17,19.15c-6.17,17.12-15,27.93-25,35.67-3.37,2.6-7,4.45-9.85,8.84a20.37,20.37,0,0,0-2.4,16.56c1.71,6.51,5,9.76,8.76,7.27,13.63-8.92,26.52-20.42,36.27-41.12C4019.45,1482.66,4024,1469.06,4024,1451.86Zm205.32-251.34c-4.9,0-8.38,9-7.82,21a344.34,344.34,0,0,0,7.31,57.47c4.08,18.7,10.46,33.61,20.5,42.33,5.34,4.64,9.7,3,11.78-4.33,2.19-7.64.73-15-4.77-20.19-7.32-6.9-11.64-18-14.3-31.87a265.33,265.33,0,0,1-5.28-47.85C4236.63,1206.76,4233.6,1200.48,4229.32,1200.52Zm-162.13-208c.12-10.87-2-17.16-7.06-17.64-5.2-.49-7.8,5.79-8,20.1a63.91,63.91,0,0,1-5.31,24.5c-6.74,16.14-15.66,27.52-24.68,38.7a21.45,21.45,0,0,0-3.65,21.08c2.48,6.76,6.78,7.88,11.52,2.51a166.69,166.69,0,0,0,25.62-38.2C4062.25,1030,4067.09,1014.71,4067.19,992.54Zm188.27-85.95c-.2-7-2.52-11.48-5.48-14.6-13.83-14.58-22.42-37.16-28.58-63.64-2.14-9.21-5.88-12.68-9.76-9.71s-5.87,11.51-4.05,20.39c1.37,6.61,3.3,12.82,5,19.17,7,25.72,17.68,44.63,30.82,59.21,2.76,3.07,5.68,3.64,8.54.78C4254.37,915.79,4255.32,911.52,4255.46,906.59Zm-195.56,578c-.32-8.1-1.59-14.58-6.18-16.31-4.13-1.57-7.37,2.77-8.56,12a65.32,65.32,0,0,1-10,28.1c-5.72,8.87-12.55,13.93-19.07,20.13-4.41,4.2-6,11.38-4.35,18.32s5.64,10.2,10.11,6.94c10.94-8,21.23-18.13,29.12-34.9A95.25,95.25,0,0,0,4059.9,1484.58Zm136.3-213c1,18.26,3.89,37.11,11.37,52.46,3,6.06,6.72,10.24,11.07,11.9,3.92,1.5,7.58,0,9-7.76s0-14.52-4.05-17.86c-9-7.42-10.84-22.14-11.87-37.87-.28-4.27.09-8.64-.65-12.88-1-5.94-3.23-9.6-6.49-10s-5.75,2.71-7.1,8.42A55.15,55.15,0,0,0,4196.2,1271.6Zm22-378a20.26,20.26,0,0,0-2-10.15c-7.57-14.29-13.17-31-17.74-49.09-2.31-9.16-6.62-12.09-10.6-8.39-3.71,3.45-5,11.31-2.87,20.18,3.35,14.22,7.32,27.81,12.57,40,2.71,6.29,5.37,12.7,8.85,17.58,2.59,3.61,5.56,4.33,8.47,1.45C4217.21,902.79,4218.33,898.73,4218.17,893.59Zm-125.31,124.49c-.44-7.21-1.8-12.52-5.24-14.39-3.85-2.1-7.21.5-8.7,7.36-3.51,16.22-9.27,29.14-15.9,41.16-3.62,6.57-3.8,14.37-1.06,19.9s7.69,5.8,11.29-.15a138.7,138.7,0,0,0,17.73-43.21C4091.8,1025.06,4092.32,1021.15,4092.86,1018.08Z"/><path class="cls-3" d="M4129.5,1868.33c0-13.62,0-27.23,0-40.84,0-5.23,7.51-18.15,10.13-17.22.77.27.88,1.4,1.11,2.61,7.6,39.4,8.76,79,1.32,119-1.42,7.63-3.17,15-6,21.23-.92,2-1.84,5.45-3.48,4.27s-1.19-4.79-1.24-7.41C4130.79,1922.76,4129.76,1895.58,4129.5,1868.33Z"/><path class="cls-3" d="M4191.65,2018.59h-25.91c-1.67,0-2.63-.52-2.66-4.66-.13-23.33,1.64-44.49,12.37-60.86,7.19-11,10-27.57,10.5-44.87.32-11.44.08-22.93.16-34.39,0-2.81-1-7.37,1.43-7.56s1.63,4.54,1.62,7.21c-.06,25.73-.29,51.45-.33,77.18q0,23.23.39,46.48c.11,6.45.72,12.89,2.82,18.52Z"/><path class="cls-3" d="M4170.73,1866.38c.26,9.89.72,19.77.73,29.66,0,17.39-2.66,32.4-10.12,44.54-11.1,18.06-13.66,42.51-12.5,68.53.35,8.06-1.26,8.57-4.65,7.79-7.64-1.75-11.8-11.34-10.7-25,.18-2.18.79-3.25,1.75-4,15.09-12.09,19.89-37.54,23.67-64,2.88-20.16,3.44-40.9,3.22-61.71Z"/><path class="cls-3" d="M4203.15,2014.36c1.67-5.77,1.28-11.55,1.13-17.45-1.08-43.32,0-86.68-.41-130-.05-4.85,7.37-12.44,9.54-9.88,1.39,1.63.73,4.5.72,6.81-.12,39-2,77.9-3.63,116.78-.36,8.33-.67,16.67-.81,25C4209.57,2013,4208,2016.61,4203.15,2014.36Z"/><path class="cls-2" d="M4170.73,1866.38l-8.6-4.15q-.33-4.83-.65-9.66C4164.36,1858,4170.85,1854.74,4170.73,1866.38Z"/><path class="cls-5" d="M4024,1451.86c0,17.2-4.55,30.8-10.35,43.1-9.75,20.7-22.64,32.2-36.27,41.12-3.8,2.49-7.05-.76-8.76-7.27a20.37,20.37,0,0,1,2.4-16.56c2.88-4.39,6.48-6.24,9.85-8.84,10-7.74,18.82-18.55,25-35.67a52.61,52.61,0,0,0,3.17-19.15c-.21-12,2.3-18.62,6.88-19.11s7.73,6.58,8.08,18.67C4024,1449.38,4024,1450.63,4024,1451.86Z"/><path class="cls-5" d="M4229.32,1200.52c4.28,0,7.31,6.24,7.42,16.57a265.33,265.33,0,0,0,5.28,47.85c2.66,13.84,7,25,14.3,31.87,5.5,5.19,7,12.55,4.77,20.19-2.08,7.31-6.44,9-11.78,4.33-10-8.72-16.42-23.63-20.5-42.33a344.34,344.34,0,0,1-7.31-57.47C4220.94,1209.56,4224.42,1200.57,4229.32,1200.52Z"/><path class="cls-5" d="M4067.19,992.54c-.1,22.17-4.94,37.41-11.55,51a166.69,166.69,0,0,1-25.62,38.2c-4.74,5.37-9,4.25-11.52-2.51a21.45,21.45,0,0,1,3.65-21.08c9-11.18,17.94-22.56,24.68-38.7a63.91,63.91,0,0,0,5.31-24.5c.19-14.31,2.79-20.59,8-20.1C4065.17,975.38,4067.31,981.67,4067.19,992.54Z"/><path class="cls-5" d="M4255.46,906.59c-.14,4.93-1.09,9.2-3.49,11.6-2.86,2.86-5.78,2.29-8.54-.78-13.14-14.58-23.87-33.49-30.82-59.21-1.72-6.35-3.65-12.56-5-19.17-1.82-8.88,0-17.32,4.05-20.39s7.62.5,9.76,9.71c6.16,26.48,14.75,49.06,28.58,63.64C4252.94,895.11,4255.26,899.62,4255.46,906.59Z"/><path class="cls-5" d="M4059.9,1484.58a95.25,95.25,0,0,1-8.92,34.29c-7.89,16.77-18.18,26.92-29.12,34.9-4.47,3.26-8.48,0-10.11-6.94s-.06-14.12,4.35-18.32c6.52-6.2,13.35-11.26,19.07-20.13a65.32,65.32,0,0,0,10-28.1c1.19-9.24,4.43-13.58,8.56-12C4058.31,1470,4059.58,1476.48,4059.9,1484.58Z"/><path class="cls-5" d="M4196.2,1271.6a55.15,55.15,0,0,1,1.32-13.56c1.35-5.71,3.85-8.78,7.1-8.42s5.45,4,6.49,10c.74,4.24.37,8.61.65,12.88,1,15.73,2.91,30.45,11.87,37.87,4,3.34,5.48,10.17,4.05,17.86s-5.12,9.26-9,7.76c-4.35-1.66-8.12-5.84-11.07-11.9C4200.09,1308.71,4197.23,1289.86,4196.2,1271.6Z"/><path class="cls-5" d="M4218.17,893.58c.16,5.15-1,9.21-3.36,11.58-2.91,2.88-5.88,2.16-8.47-1.45-3.48-4.88-6.14-11.29-8.85-17.58-5.25-12.18-9.22-25.77-12.57-40-2.09-8.87-.84-16.73,2.87-20.18,4-3.7,8.29-.77,10.6,8.39,4.57,18.1,10.17,34.8,17.74,49.09A20.24,20.24,0,0,1,4218.17,893.58Z"/><path class="cls-5" d="M4092.86,1018.08c-.54,3.07-1.06,7-1.88,10.67a138.7,138.7,0,0,1-17.73,43.21c-3.6,6-8.57,5.64-11.29.15s-2.56-13.33,1.06-19.9c6.63-12,12.39-24.94,15.9-41.16,1.49-6.86,4.85-9.46,8.7-7.36C4091.06,1005.56,4092.42,1010.87,4092.86,1018.08Z"/><path class="cls-1" d="M184.12,1278.53c-2.73-1.21-5.67-.75-8.38-2.4-14.51-8.83-18.72-22-16.65-39.76,2.14-18.35,5.84-33.22,19-49.43,14.61-17.94,21.16-30.85,30.91-56.06,42.84-110.81,15-218.32,4-331.71-2.61-26.8-7.36-57.63-2.42-81.93,9.6-47.21,20-57.32,56.35-17.9,29.11,31.58,60.2,71,91.84,106.47,23.47,26.28,55.64,64.27,78.15,91.73,52.27,63.76,103.39,127,155.73,187.55,16.89,19.54,24,28,37,47.12a84,84,0,0,1,10.37,19.8,52.21,52.21,0,0,1,0,36.88c-4.27,11.5-10.43,18.6-21.92,18.29-10-.27-18-1.13-27.14-3.75a33.69,33.69,0,0,0,7.76,24.31c11.23,13.34,20.81,22.91,31.86,35.82,10.78,12.61,19.65,25.68,26.42,41.83,4.2,10,7,23.13,6.57,34.61-.41,10.34-2.69,19.66-10.19,27.14-5.12,5.1-8.09,5-12.54-1.71A33.77,33.77,0,0,0,621.57,1351c-6.23-1.74-10.14,4.94-11.22,11.64-1.47,9.23-.65,22.92,8.2,29,2.93,2,4.16,2.13,5.55,5.59,15.62,38.82,33.19,76.15,48.16,115.74,9.47,25.06,18.61,52.68,24.09,79.15a183.35,183.35,0,0,1,3.1,21.46c1.39,24.5-2.82,55.69-31.72,58.28-2.61.23-4.64-1.77-5.71,1.59s1.34,6,2.54,8.48c15.29,31.67,30.8,62.75,49.08,92.63,5.21,8.53,7.77,18.68,12.3,27.32,9.93,19,20.8,36.88,27.81,56.93.76,2.18,2.53,4.82,4.21,5,6.85.9,7.28,7.35,9.08,12.72,1.33,4,3,9.29,4.3,13.13,6.31,19.2,6.14,38.91-7.88,53.29-15.57,16-27.32,20.84-47.91,13.92-10.69-3.6-17.12-10-25.8-17.31-7-5.93-8.24-1.95-9.31,6.74-4.2,33.88-26.62,73-64.6,47.54-4-2.7-4.53-7.92-5.46-11.43-1.45-5.44-3.26-12.64-9.67-10.3s-7.13,9.41-6.46,15.9c1.1,10.58,2,25.44,5.25,35.06,1.7,5.08-.3,7.77-2.16,9.54-10.53,10.06-19.82,13.83-33.54,10-23.18-6.49-38.85-21.22-51.92-41.55-5.24-8.15-12.45-18.15-18.49-26.38-1.06-1.44-2.12-4.81-4-2.27-4.56,6-9.85,7.11-16.34,10.2-5.42,2.59-5.85,5.76-5.58,12.79,1.81,46.8,1.13,101.54-.23,146.57-.81,26.78-8,46.17-30.06,48-16.7,1.39-25.76.16-40.25,1s-26.25-.28-40.63-1.18c-8.43-.53-14.91-.74-23.2-6.84-13.23-9.75-17.91-22.14-19-41.2-1.73-30.64-2.4-65.9-3.3-97.47-.34-11.92,1.33-25.7-1.93-36.18-3.49-11.25-12.37-8.24-20.2-12.72-17.68-10.13-30-20-45-35-13.84-13.78-18-9.85-26.58,7.1-5.34,10.51-12.28,13.75-22,16.63-8.32,2.47-13.75,4.42-20.13,9.31-5.75,4.4-9.41,5.39-16.86,5-14.39-.81-19.53-10.67-22.46-24.44a32.68,32.68,0,0,0-2.09-6c-2.29-5-2.31-7.54.81-12.76,3.38-5.65,4.36-15.5-3.35-19.77-13.21-7.32-27.23,5.69-32.52,18-.41,1-1.2,3-1.07,3.67,1.58,8.21-3.73,14.29-9.15,16.65-16.7,7.26-29.31,7.38-46.59,8.09-4,.16-7.43-3.7-9.59-7.59-5.51-9.86-12.8-15.52-24.28-14.67-4.79.36-5.36-2-6.19-6.63A104.14,104.14,0,0,1,4.41,1905c6.06-19.42,14.69-36.49,24.88-53.32,23.37-38.62,46.78-76.4,67-116.84,4.3-8.61,8.94-18.14,13.27-27.17,1-2.09,2.83-4.39,2-7.16-.62-2.07-2.28-1.58-3.91-2.25-5.4-2.23-8.93-1.44-14.46-5-17-11-20.14-28.74-18.57-49.3.77-10.09,4.15-23.27,7.41-33.69,9.89-31.67,23.59-61.82,38-91.59,16.5-34.1,32.72-69,46.41-103.81,2.73-6.94,4.63-8.35-2.61-12.22-13.23-7.06-17.46-20-17.38-36.58.1-17.59,4.26-38,13.26-54.22C166.63,1299.38,175.2,1289.28,184.12,1278.53Zm425-98.21a29.39,29.39,0,0,1,3.93.09c4.65.1,8.12-1.58,9.69-6.43,1.7-5.27-1.17-9-3.34-13.68a21.92,21.92,0,0,0-2.59-4.13c-12.87-18.3-19.76-26.43-35.27-44.7-39.67-46.7-76.14-90.34-116-141.84-30.77-39.77-72.19-90.72-106.88-130.35-33.05-37.77-67.24-76.88-98.31-112.6-23.19-26.65-23.18-20-30.93,7.19a27.93,27.93,0,0,0-.47,4C224.48,775,235.59,826.31,242,864.64c14.59,87.6,17.53,176.93-8.61,261.42-11.86,38.33-23.8,62.78-48,91.92-5.59,6.75-6.72,14.1-7.13,22.59-.14,3,.36,4.91,2.83,5.09,10.58.76,18.3.7,27-6,4.5-3.43,8.31-7.57,14.7-8.09s10.29,2.48,12,9.57a28,28,0,0,1-4,21.24,53.39,53.39,0,0,1-5.17,6.67c-13.25,15.16-25.34,28.2-38.94,43.92-10.4,12-18.85,28.51-20.64,44.32-1.07,9.47-.24,15.4,8.66,13.57,7.41-1.52,11.42-7.85,17.94-10.93,5.25-2.5,8.79-.61,11.15,5.12a23.59,23.59,0,0,1-.73,18.47c-16.16,35.8-30.23,73.18-46.53,108.69-15.35,33.44-32.2,65-45.93,99.1C103.87,1608.19,97,1628,93.86,1645c-1.74,9.28-1,15.12,6.48,18.08,6.24,2.49,10.1,2.63,16.42,4.5,15.4,4.58,23.77-5.08,31.9-18.25,5.54-9,12.86-21.47,19.06-30.33,3.63-5.19,7.67-7.65,13.05-3.79s5.67,11.67,6.07,18.08c.32,4.94.47,13.16,1,17.54,1,8.41,3.31,14.66,11.38,10.4,4.15-2.18,6.67-5,10-7.92,8.41-7.54,15.14-16.13,24.19-23.3,5.43-4.31,9.74.23,11.65,6.45,2,6.51,1.52,15-3.28,20.07-12.42,13.09-20.33,24.82-36.34,34.69-21.14,13-28.68-1.17-34.41-22-1.73-6.28-3.7-5.74-6.47-1.24-6.47,10.55-12.14,20-21.45,27.69-4.86,4-7.68,8.18-10.41,14-11.82,25.31-25.18,52.16-38.32,76.43-17.57,32.47-36.91,61.8-55.44,93.24a250.12,250.12,0,0,0-15.33,31.38,72.9,72.9,0,0,0-4.82,21.55c-.4,8.78,1,15.43,8.74,17.43,14,3.62,24.8.62,38.92-.76,11-1.07,19.34-5.54,27.84-14,5.41-5.4,9.84-11.73,16.75-17.73,13.47-11.71,20.88-4.68,26.35,11.13,1.54,4.45,3,10.52,4.33,15.31,1.89,7,4.25,15.74,7,21.94,2.32,5.17,4.76,9.67,10,10.49,14.21,2.22,23.54-3.89,33.54-13.85,5.62-5.6,10.56-15.82,15-22.28,7.71-11.14,16.16-22,30.22-17.91,8.32,2.43,13.87,9.73,19.49,15.39,16.63,16.73,36.07,31,58.47,37.39,13.78,4,25.89,2.67,39.28,1.43C380,1973.94,404,1969.2,429,1965c20.08-3.42,37.9-15.23,58.76-16.19.78,0,1.61-.89,2.23-1.62,5.49-6.47,9.89-3.91,14.36,2.14,9.32,12.58,18.71,27.54,27.91,39.42,12.14,15.67,24.32,21.42,43.07,25,4.33.82,8.31-1.18,9.93-6s-1.18-10.34-3-15.06c-1-2.56-2-5-3.17-7.44-4.49-9.55-9.13-19-13.48-28.6a27.08,27.08,0,0,1-1-18.74c1.82-5.67,5-8.85,10.42-8.63,8.44.34,12.91,6.37,19,11.3,13.44,10.8,22.22,25.35,40.66,29.88,16.68,4.1,25.54-14.68,27.25-30.32a152,152,0,0,1,3.58-19.76c3.41-11.74,9.31-21,21.55-16.27,8.64,3.37,12.11,10.64,19.5,15.73,17,11.7,27.83,14.15,44.75.21,7.06-5.83,6.27-12.78,3.73-21.19a78.38,78.38,0,0,0-3.32-8.3A415.65,415.65,0,0,0,729.66,1849c-11.51-19.24-21.94-38.59-33.25-58-12-20.69-23.38-42-34.57-63.36-10.72-20.4-18-42.17-34.29-59.44-6.54-6.94-4.47-18.47.82-25.85.91-1.27,2.44-2.38,3.15-3.54,5.94-9.63,9-12.5,18.63-6.38,5.85,3.72,10.1,7.69,17.55,7.51,13.22-.31,14.21-10.94,12.47-24.21a261.24,261.24,0,0,0-7.41-34.9c-11.43-38.93-27.22-76.4-43.23-113.73-13.6-31.72-27.19-62.67-37.14-96.09-4.63-15.51-7.21-32.36-13.91-48.18-3-7,.42-16.44,6.5-22.13,5-4.71,11.19-2.68,13.32,3.64,4.68,14,13.5,22.11,23.36,31.44,4.55,4.3,8.22,6.76,14,6.67,10-.15,9.33-4.5,6.25-14.33-4.66-14.9-14.67-29.86-25.65-41.57-27.09-28.91-50.39-58.11-74.56-90-9-11.92-18.54-28.64-25.5-43.63-2.31-5-4.51-11.89-4.08-18.63.91-14.42,10.41-18.25,18.93-7.5,14.4,18.17,24.67,37.73,45.91,44.91C589.15,1175.75,597.54,1176.72,609.16,1180.32Zm-247.3,979c-4.1-6.27-5.49-13.42-5.74-20.59-1.21-34.08-2.6-68.62-3-102.28-.12-9.17,2.15-19.74-2.11-26.6-4-6.41-10.16-1.64-16.16-1.88s-6.4,3.52-6.09,11.06c1.34,32.24,2.24,72,3.18,103.44.76,25.17-1.08,30.76,21.5,36.73C356.29,2160,359,2158.82,361.86,2159.32Zm39.7.37c8.6,1.1,15.27-.5,24.14,2.09a18.81,18.81,0,0,0,18-4.22c3.15-2.81,4.82-8.42,4.68-13s-2.48-3-5.08-4.7-4.34-1.82-6.45-4.11c-11.82-12.79-15.68-28.19-18.32-45.63-3.49-23-1.4-51.49-.21-73.32.93-16.94,4-19.26-11-16.51-3.24.6-3.47,1.87-3.25,6.34,2.13,42.9,1.88,87.34,3.18,130.72C407.49,2145.56,406.43,2152.85,401.56,2159.69Zm-32.2-.08a80.2,80.2,0,0,0,24.69.82c-4.35-7.46-5.49-15.08-5.61-23.61-.3-21.76-.64-43.84-1.12-65.48-.45-19.65-1.09-40.31-1.56-59.12-.13-5.53-.39-8.18-5.1-8a24.47,24.47,0,0,0-6.34.7c-3.12.85-3.33,2.39-3.2,6.63,1.27,41,2.34,83.12,3.61,124.51C375,2144.6,373.76,2152.22,369.36,2159.61ZM450,2060.73c-.51-19.85-.67-40.73-1.32-60.22-.12-3.8,1.63-8.7-3.71-7.83-4.1.67-6.47.63-6.85,8.19-1,20.74-3.4,45.14-2.82,66.84.36,13.36,2.3,26.23,8,38,1.14,2.37,2.46,4.68,4.71,3.42s1.18-4.77,1.23-7.06C449.6,2088.35,449.75,2074.51,450,2060.73Z"/><path class="cls-2" d="M609.16,1180.32c-11.62-3.6-20-4.57-32.23-8.69-21.25-7.18-31.49-26.75-45.91-44.91-8.53-10.75-18-6.93-18.93,7.5-.43,6.74,1.78,13.64,4.08,18.63,6.94,15,16.5,31.71,25.51,43.62,24.16,32,47.45,61.15,74.56,90,11,11.71,21,26.69,25.64,41.58,3.09,9.82,3.69,14.18-6.25,14.33-5.74.09-9.42-2.37-14-6.67-9.86-9.33-18.68-17.46-23.36-31.44-2.12-6.33-8.28-8.35-13.32-3.64-6.08,5.69-9.48,15.09-6.5,22.13,6.69,15.83,9.29,32.66,13.91,48.18,9.94,33.43,23.55,64.36,37.14,96.08,16,37.35,31.8,74.8,43.23,113.75a261.22,261.22,0,0,1,7.42,34.89c1.73,13.27.74,23.9-12.48,24.21-7.45.18-11.7-3.79-17.55-7.51-9.63-6.13-12.69-3.24-18.63,6.38-.71,1.16-2.23,2.27-3.15,3.54-5.3,7.39-7.35,18.9-.82,25.84,16.27,17.3,23.59,39,34.29,59.45C673,1749,684.38,1770.29,696.41,1791c11.31,19.46,21.75,38.81,33.25,58a416.62,416.62,0,0,1,22.09,41.45,80.58,80.58,0,0,1,3.32,8.3c2.54,8.41,3.33,15.37-3.73,21.19-16.92,14-27.76,11.49-44.75-.21-7.39-5.08-10.86-12.36-19.5-15.73-12.24-4.78-18.14,4.53-21.55,16.27a152.28,152.28,0,0,0-3.58,19.76c-1.71,15.64-10.56,34.4-27.25,30.32-18.46-4.52-27.22-19.08-40.66-29.88-6.13-4.94-10.6-11-19-11.3-5.41-.22-8.6,3-10.42,8.63a27,27,0,0,0,1,18.74c4.35,9.59,9,19,13.48,28.6,1.12,2.39,2.2,4.88,3.17,7.44,1.79,4.72,4.59,10.24,3,15.07s-5.59,6.8-9.92,6c-18.77-3.53-30.94-9.3-43.08-25-9.21-11.87-18.58-26.85-27.9-39.42-4.49-6-8.88-8.61-14.37-2.14-.62.73-1.45,1.58-2.23,1.61-20.85,1-38.69,12.79-58.76,16.2-24.89,4.21-49,9-74.17,11.32-13.38,1.22-25.51,2.54-39.28-1.43-22.39-6.45-41.84-20.65-58.47-37.39-5.63-5.66-11.17-13-19.49-15.39-14.06-4.1-22.51,6.77-30.22,17.91-4.48,6.46-9.42,16.69-15,22.28-10,10-19.32,16.07-33.54,13.85-5.25-.82-7.68-5.32-10-10.49-2.79-6.2-5.14-14.9-7.05-21.94-1.29-4.79-2.77-10.87-4.32-15.31-5.48-15.8-12.88-22.84-26.35-11.14-6.91,6-11.34,12.34-16.75,17.74-8.5,8.48-16.86,12.94-27.84,14-14.12,1.38-24.91,4.37-38.92.76-7.74-2-9.14-8.65-8.74-17.43a72.77,72.77,0,0,1,4.82-21.54,248.91,248.91,0,0,1,15.33-31.39c18.51-31.42,37.89-60.79,55.44-93.24,13.12-24.26,26.51-51.13,38.32-76.44,2.73-5.84,5.54-10,10.41-14,9.32-7.72,15-17.14,21.45-27.68,2.76-4.51,4.76-5.06,6.48,1.22,5.7,20.83,13.28,35,34.4,22,16-9.87,23.93-21.62,36.34-34.7,4.8-5.06,5.27-13.56,3.27-20.06-1.9-6.22-6.21-10.77-11.64-6.46-9,7.17-15.78,15.76-24.19,23.3-3.31,3-5.83,5.74-10,7.92-8.07,4.26-10.36-2-11.38-10.4-.53-4.38-.68-12.6-1-17.54-.4-6.42-.69-14.23-6.07-18.08s-9.42-1.4-13.05,3.79c-6.2,8.86-13.52,21.37-19.06,30.33-8.12,13.16-16.5,22.83-31.9,18.25-6.32-1.87-10.18-2-16.42-4.5-7.44-3-8.23-8.79-6.48-18.08,3.19-17,10-36.81,16.79-53.64,13.74-34,30.59-65.66,45.95-99.1,16.31-35.53,30.35-72.88,46.52-108.68a23.61,23.61,0,0,0,.73-18.48c-2.37-5.73-5.9-7.62-11.16-5.12-6.51,3.09-10.52,9.41-17.93,10.93-8.9,1.84-9.71-4.11-8.66-13.57,1.76-15.8,10.25-32.3,20.65-44.32,13.58-15.71,25.69-28.77,38.92-43.92a53.44,53.44,0,0,0,5.18-6.67,27.93,27.93,0,0,0,4-21.24c-1.68-7.09-5.59-10.09-12-9.57s-10.18,4.66-14.69,8.09c-8.75,6.65-16.45,6.7-27,6-2.47-.18-3-2.06-2.83-5.1.37-8.46,1.58-15.85,7.15-22.59,24.05-29.09,36.16-53.63,48-91.93,26.05-84.44,23.19-173.81,8.6-261.41-6.38-38.33-17.53-89.62-13-126.77a28.09,28.09,0,0,1,.48-4c7.74-27.2,7.75-33.84,30.93-7.19,31.06,35.73,65.28,74.83,98.32,112.59,34.67,39.64,76.09,90.59,106.87,130.36,39.84,51.49,76.28,95.15,116,141.84,15.52,18.27,22.39,26.4,35.27,44.7a21.92,21.92,0,0,1,2.59,4.13c2.17,4.72,5,8.41,3.34,13.68-1.57,4.85-5,6.53-9.69,6.43A29.39,29.39,0,0,0,609.16,1180.32Zm-147.78,32.45c7.43-.29,11.46-5.33,12.29-12.39.92-7.82-.75-15.48-8-19.23a34.88,34.88,0,0,1-15.44-14.67c-6.84-11.93-14.52-32.2-18.76-43.06-3.36-8.6-8.16-20.11-15.58-14s-4.58,17.24-1.51,27.28c5.33,17.42,15,40.64,24.51,56.66C445.11,1203.82,450.82,1208.73,461.38,1212.77ZM310.45,1415.69c.06-6.62.32-16-7.11-18s-9.84,5.76-11.43,12.27a135.6,135.6,0,0,1-4.7,16.16c-6.34,15.7-14.39,30.59-26.7,41.83-8.33,7.6-9.18,19.64-2.8,27.48,3.6,4.41,6.89,3.16,11-.17,22.48-18.24,33.27-46.46,41-73.84A28.25,28.25,0,0,0,310.45,1415.69ZM514,1662.93c-11,4-12.12,14-10.78,26,2.37,21.24,9.6,44.92,21.45,63.45,3.49,5.45,6.38,9.2,11.64,11.85,6.47,3.27,11.17-1.37,12.68-7.73,1.74-7.34.65-14.11-4.6-19.84-15.18-16.59-20.33-37.38-22.61-58.84C521,1670.85,520.42,1665.71,514,1662.93ZM387.44,1149.36c5.08,26,13.3,54.11,31.89,72.81,7,7,12.47,5.27,15.64-2.9,3.34-8.58,1.77-16.57-5.27-24.52-12.38-14-19.65-35-23.17-52.88-1.5-7.62-4-16.28-12-15.25S387.25,1143.34,387.44,1149.36Zm-35,294.05c.05-6.86-.45-19.66-8.95-21-7.59-1.22-9.82,7.28-10.41,13.95a54.9,54.9,0,0,1-8.16,23c-5.6,8.59-12.35,15.44-18.4,23-5.53,6.89-7.65,15.69-4.44,23.47,3,7.36,8.1,8.15,14.19,2.3a148.17,148.17,0,0,0,23-28.64A95.52,95.52,0,0,0,352.42,1443.41Zm126,333.39c6.82-.38,9-5.9,9.82-12.49s-.74-13.68-7-17.37c-1.67-1-2.56-1.12-4.33-2-8.68-4.56-13.66-19.72-14.47-27.18-1-9-2.08-20.47-11.89-18.34-9.08,2-9.44,15.16-8.29,24a98.73,98.73,0,0,0,9.06,28.13C457.84,1763.85,464.38,1773.67,478.43,1776.8Z"/><path class="cls-3" d="M361.86,2159.32c-2.85-.51-5.58.65-8.46-.12-22.57-6-20.76-11.54-21.5-36.73-.92-31.42-1.87-71.17-3.17-103.45-.31-7.55.07-11.28,6.08-11s12.17-4.53,16.16,1.88c4.26,6.85,2,17.42,2.11,26.6.43,33.68,1.86,68.17,3,102.3C356.36,2145.92,357.78,2153,361.86,2159.32Z"/><path class="cls-3" d="M401.56,2159.69c4.87-6.85,5.92-14.13,5.68-22.38-1.29-43.4-1.06-87.82-3.18-130.73-.22-4.48,0-5.74,3.25-6.34,15-2.75,11.9-.43,11,16.51-1.19,21.84-3.28,50.3.2,73.32,2.64,17.46,6.51,32.83,18.33,45.63,2.11,2.28,3.84,2.45,6.45,4.11s4.94.06,5.08,4.7-1.53,10.24-4.68,13a18.81,18.81,0,0,1-18,4.22C416.84,2159.19,410.15,2160.79,401.56,2159.69Z"/><path class="cls-3" d="M369.35,2159.61c4.42-7.4,5.62-15,5.37-23.5-1.25-41.41-2.32-83.54-3.61-124.51-.13-4.24.1-5.8,3.21-6.64a24.86,24.86,0,0,1,6.34-.7c4.7-.22,5,2.42,5.11,8,.46,18.8,1.09,39.49,1.54,59.12.51,21.62.81,43.74,1.14,65.47.12,8.53,1.24,16.17,5.6,23.62A80.59,80.59,0,0,1,369.35,2159.61Z"/><path class="cls-3" d="M450,2060.73c-.29,13.78-.45,27.63-.78,41.32-.05,2.29,1,5.81-1.23,7.06s-3.57-1-4.71-3.42c-5.67-11.76-7.63-24.61-8-38-.57-21.73,1.78-46.1,2.83-66.85.38-7.56,2.74-7.52,6.84-8.19,5.35-.88,3.58,4,3.71,7.83C449.38,2020,449.52,2040.88,450,2060.73Z"/><path class="cls-5" d="M461.38,1212.77c-10.57-4-16.27-9-22.48-19.43-9.5-16-19.19-39.23-24.5-56.67-3.07-10-5.93-21.18,1.5-27.27s12.22,5.42,15.58,14c4.24,10.86,11.93,31.13,18.76,43.06a34.88,34.88,0,0,0,15.44,14.67c7.24,3.75,8.91,11.41,8,19.23C472.84,1207.44,468.81,1212.48,461.38,1212.77Z"/><path class="cls-5" d="M310.45,1415.69a28.33,28.33,0,0,1-.73,5.74c-7.72,27.38-18.53,55.61-41,73.83-4.11,3.33-7.41,4.59-11,.18-6.39-7.84-5.52-19.88,2.8-27.48,12.3-11.23,20.36-26.13,26.7-41.83,1.88-4.66,3.64-11.86,4.7-16.16,1.6-6.51,4-14.21,11.43-12.27S310.51,1409.07,310.45,1415.69Z"/><path class="cls-5" d="M514,1662.93c6.46,2.78,7,7.93,7.78,14.9,2.28,21.45,7.43,42.25,22.61,58.84,5.24,5.74,6.34,12.5,4.6,19.83-1.51,6.37-6.21,11-12.68,7.74-5.26-2.65-8.15-6.4-11.64-11.85-11.85-18.52-19.07-42.22-21.45-63.45C501.84,1677,503,1666.88,514,1662.93Z"/><path class="cls-5" d="M387.44,1149.36c-.19-6-.86-21.71,7.11-22.74s10.49,7.62,12,15.25c3.51,17.84,10.78,38.89,23.18,52.88,7,7.94,8.59,15.94,5.26,24.52-3.17,8.16-8.68,9.92-15.64,2.9C400.76,1203.46,392.51,1175.39,387.44,1149.36Z"/><path class="cls-5" d="M352.43,1443.42a95.83,95.83,0,0,1-13.16,36,147.79,147.79,0,0,1-23,28.64c-6.09,5.85-11.16,5.06-14.19-2.3-3.21-7.78-1.08-16.58,4.44-23.46,6.05-7.53,12.81-14.39,18.4-23a54.9,54.9,0,0,0,8.16-23c.59-6.66,2.82-15.17,10.41-13.95C352,1423.75,352.47,1436.56,352.43,1443.42Z"/><path class="cls-5" d="M478.43,1776.8c-14-3.15-20.6-12.94-27.1-25.32-4.08-7.79-8-20.14-9.06-28.13-1.13-8.83-.8-22,8.29-24,9.82-2.14,10.88,9.3,11.89,18.34.82,7.45,5.79,22.63,14.47,27.18,1.77.92,2.66,1.07,4.33,2,6.26,3.69,7.85,10.78,7,17.37S485.25,1776.42,478.43,1776.8Z"/></g></g></svg>